<svg width="19" height="20" viewBox="0 0 19 20" fill="none" xmlns="http://www.w3.org/2000/svg">
<path d="M0 10.2499C0 5.00327 4.25327 0.75 9.49994 0.75C14.7466 0.75 18.9999 5.00327 18.9999 10.2499C18.9999 15.4966 14.7466 19.7499 9.49994 19.7499C4.25327 19.7499 0 15.4966 0 10.2499Z" fill="#434343"/>
<g>
<path d="M11.4203 9.91648H9.83387V8.33006C9.83387 8.28414 9.7963 8.24657 9.75038 8.24657H9.2494C9.20348 8.24657 9.16591 8.28414 9.16591 8.33006V9.91648H7.57949C7.53357 9.91648 7.496 9.95405 7.496 9.99997V10.5009C7.496 10.5469 7.53357 10.5844 7.57949 10.5844H9.16591V12.1709C9.16591 12.2168 9.20348 12.2544 9.2494 12.2544H9.75038C9.7963 12.2544 9.83387 12.2168 9.83387 12.1709V10.5844H11.4203C11.4662 10.5844 11.5038 10.5469 11.5038 10.5009V9.99997C11.5038 9.95405 11.4662 9.91648 11.4203 9.91648Z" fill="#F5F5F5"/>
<path d="M9.49997 5.57422C6.91787 5.57422 4.82422 7.66787 4.82422 10.25C4.82422 12.8321 6.91787 14.9257 9.49997 14.9257C12.0821 14.9257 14.1757 12.8321 14.1757 10.25C14.1757 7.66787 12.0821 5.57422 9.49997 5.57422ZM9.49997 14.1325C7.35622 14.1325 5.61743 12.3937 5.61743 10.25C5.61743 8.10622 7.35622 6.36743 9.49997 6.36743C11.6437 6.36743 13.3825 8.10622 13.3825 10.25C13.3825 12.3937 11.6437 14.1325 9.49997 14.1325Z" fill="#F5F5F5"/>
</g>
</svg>
