<svg width="12" height="14" viewBox="0 0 12 14" fill="none" xmlns="http://www.w3.org/2000/svg">
<path d="M3.77963 9.6535C4.06678 9.93963 4.36728 10.2394 4.6611 10.5323C4.74791 10.6141 4.8414 10.6958 4.91486 10.7912C5.20868 11.1591 5.19533 11.6837 4.88815 11.9902C4.58097 12.2968 4.10017 12.3309 3.74625 12.0243C3.43239 11.745 3.15192 11.4316 2.8581 11.1182C2.77129 11.0228 2.70451 10.9002 2.60434 10.7571C2.3773 11.0024 2.21703 11.1659 2.05676 11.343C2.3773 11.6837 2.69783 11.9834 2.97162 12.3309C3.15192 12.5557 3.31219 12.8282 3.37229 13.1007C3.45242 13.4345 3.28548 13.7207 2.97162 13.8773C2.65776 14.034 2.3172 14.0477 2.06344 13.8024C1.42237 13.1825 0.787981 12.5489 0.193657 11.8881C-0.113522 11.5542 -0.0400658 11.0637 0.313857 10.7026C1.20868 9.78294 2.11018 8.88367 3.00501 7.97077C3.56594 7.40532 4.11352 6.82625 4.68781 6.27442C4.87479 6.0973 4.88147 5.96785 4.76795 5.74304C3.82638 3.88318 4.37396 1.75082 6.08347 0.606298C7.32554 -0.224846 9.08848 -0.218033 10.3105 0.647174C11.6594 1.60094 12.2003 2.94985 11.9399 4.58489C11.6795 6.21311 10.5509 7.37807 9.01503 7.71189C8.08681 7.91627 7.19199 7.80727 6.33723 7.36445C6.23039 7.30995 6.0167 7.30995 5.93656 7.38489C5.22872 8.07978 4.54758 8.7951 3.85309 9.50362C3.82638 9.53087 3.8197 9.56493 3.77963 9.64669M8.16027 6.11092C9.40234 6.11092 10.3439 5.15715 10.3372 3.90362C10.3372 2.65009 9.38898 1.69632 8.14691 1.69632C6.9182 1.69632 6.00334 2.63647 6.00334 3.89C6.00334 5.17077 6.90484 6.10411 8.16027 6.10411" fill="#B3B6BA"/>
</svg>
