<svg width="116" height="116" viewBox="0 0 116 116" fill="none" xmlns="http://www.w3.org/2000/svg">
<g clip-path="url(#clip0_230_202)">
<path d="M18.988 100.201C4.40163 87.3923 -1.60191 70.9403 0.360078 52.0982C3.63006 20.7851 29.5181 -1.04099 60.932 0.0367466C84.9609 0.857882 106.587 17.8378 113.641 41.4014C120.505 64.3272 112.054 90.2883 93.4261 103.5C89.4066 100.369 85.6296 96.8647 80.7209 95.0538C79.2733 93.5215 77.6714 92.2898 75.4522 92.1798C75.4081 91.2927 75.3567 90.3983 75.3126 89.5111C76.6573 83.1767 75.7535 76.7396 76.2678 70.3611C78.0608 69.2467 79.8538 68.1396 81.6468 67.0252C82.4257 66.6733 82.6682 65.9842 82.7564 65.207L82.7123 65.2877C84.8212 63.8873 85.9455 61.7758 86.8567 59.5251C90.4794 50.6099 90.5309 41.2328 89.627 31.9437C88.8555 23.9816 82.7784 19.0548 74.9525 19.0182C73.6151 19.0182 72.7407 18.8129 71.9324 17.6765C70.0953 15.1031 67.3029 14.5826 64.3342 14.4433C58.3233 14.1647 52.6945 15.9316 47.0584 17.5958C38.7328 20.0519 30.4072 22.0094 21.8024 18.9009C18.8778 16.9067 17.7241 18.5856 17.3199 21.2103C16.6953 25.272 18.0988 28.7618 20.6634 31.9071C22.8973 34.6417 26.0644 36.0054 28.9082 37.8529C27.0711 42.5745 25.9468 47.4646 25.5573 52.5161C25.2267 67.1719 26.2334 81.2191 42.0763 88.4847C40.7903 88.8513 39.4823 89.1592 38.2258 89.5918C31.2008 92.0185 24.1538 94.4086 19.0027 100.201H18.988Z" fill="#051C2C"/>
<path d="M80.7209 95.0539C85.6296 96.8648 89.4066 100.369 93.4261 103.5C85.7839 110.941 76.1283 114.402 65.9582 115.538C50.7473 117.239 36.3006 114.387 23.6836 104.959C21.8612 103.595 20.105 102.232 18.9954 100.208C24.1539 94.4161 31.2009 92.0187 38.2185 89.5993C39.4824 89.1667 40.783 88.8588 42.069 88.4922C43.5166 88.6242 44.9936 88.6828 46.2795 89.5039C44.2294 96.8282 45.192 100.127 51.0853 103.155C59.1317 107.29 67.3618 108.236 75.6065 103.375C78.8471 101.469 80.9414 99.013 80.7283 95.0613L80.7209 95.0539Z" fill="#E0EEFA"/>
<path d="M46.2722 89.5039C44.9862 88.6827 43.5166 88.6241 42.0616 88.4921C26.2187 81.2192 25.212 67.1792 25.55 52.5234C26.3951 54.0264 27.2328 55.5367 28.0778 57.0397L28.0411 56.9957C29.3932 58.9312 30.6718 60.9254 32.1267 62.7803C32.722 63.5428 34.3606 64.6132 34.6619 63.7041C36.1903 59.0925 39.9453 59.0779 43.6709 58.7846C44.7952 59.789 45.9709 59.5031 47.1613 58.9312C48.8588 60.7275 51.1294 60.5882 53.3118 60.7715L53.4 60.6615C55.3988 64.8918 58.5218 63.4255 61.586 62.2744C62.8793 61.9372 63.7905 61.1234 64.4151 59.9723C67.3471 57.9195 67.7733 54.6643 68.4713 51.541C70.3819 51.541 72.2851 51.541 74.1957 51.5483C74.2985 52.4061 74.4014 53.2639 74.5043 54.1217C74.4822 57.1936 74.4602 60.2729 74.4308 63.3448C73.4755 71.9301 70.1688 79.313 63.3863 84.929C60.3662 86.4026 57.346 87.8689 54.3259 89.3426C51.6364 89.3939 48.9543 89.4525 46.2648 89.5039H46.2722ZM44.4057 67.7878C44.685 68.0664 44.9715 68.345 45.2508 68.6236C46.2061 68.3376 47.2495 68.2057 48.1019 67.7291C49.138 67.1572 51.0486 67.0766 50.6077 65.2804C50.1668 63.5135 48.4252 64.4446 47.2495 64.2026C45.6917 61.4093 43.1051 61.7319 41.2754 63.1615C39.96 64.1953 40.5626 66.2041 42.6421 66.9006L42.6201 66.8786C42.8993 67.8317 43.6488 67.8757 44.4572 67.8244L44.4131 67.7878H44.4057Z" fill="#D64417"/>
<path d="M74.1957 51.5337C72.2852 51.5337 70.382 51.5337 68.4714 51.5264C67.7807 46.4456 69.4855 41.4602 69.0078 36.3427C68.7433 33.4907 68.1848 32.9995 65.6056 34.2826C53.8483 40.1478 41.5987 41.4748 28.8936 37.8457C26.0498 35.9981 22.8753 34.6418 20.6488 31.8998C18.0842 28.7546 16.6807 25.2647 17.3053 21.203C17.7095 18.5783 18.8632 16.8994 21.7878 18.8936C22.067 23.3879 24.6977 25.8513 29.7239 27.1269C37.469 29.0918 44.8908 27.1783 52.4007 25.8366C59.4771 24.5756 66.6931 22.5301 73.4168 26.8117C81.4705 31.9438 84.0939 40.0745 85.2475 48.997C85.9824 54.723 83.0137 59.7744 82.6903 65.2877L82.7344 65.2071C81.7277 65.427 81.6175 66.1895 81.6248 67.0253C79.8319 68.1397 78.0389 69.2468 76.2459 70.3612C74.7175 68.1764 75.3935 65.669 75.2245 63.2862C76.6721 60.3609 76.0548 57.245 76.0769 54.1878C76.5398 51.4164 79.4498 51.5337 81.0223 50.0527C82.5507 48.6231 83.021 47.0101 82.3523 45.1699C81.6469 43.2491 79.9641 42.6259 78.0095 42.5086C75.6286 42.3693 75.3862 44.1655 75.0555 45.7491C74.6587 47.6553 74.4603 49.5982 74.181 51.5264L74.1957 51.5337Z" fill="#EC6B02"/>
<path d="M82.7124 65.2876C83.0284 59.7816 86.0044 54.7229 85.2696 48.9969C84.1159 40.0744 81.4852 31.9437 73.4389 26.8116C66.7152 22.5226 59.4918 24.5681 52.4228 25.8365C44.9128 27.1782 37.4837 29.0917 29.746 27.1269C24.7197 25.8512 22.0817 23.3951 21.8098 18.8935C30.4147 22.0021 38.7403 20.0446 47.0659 17.5885C52.702 15.9242 58.3308 14.1573 64.3417 14.4359C67.3104 14.5752 70.0954 15.0884 71.9398 17.6691C72.7481 18.8055 73.6226 19.0035 74.9599 19.0108C82.7859 19.0475 88.8629 23.9743 89.6345 31.9364C90.5383 41.2255 90.4869 50.5952 86.8642 59.5177C85.9456 61.7685 84.8287 63.88 82.7197 65.2803L82.7124 65.2876Z" fill="#E25002"/>
<path d="M28.9008 37.8531C41.606 41.4822 53.8556 40.1552 65.6128 34.29C68.1921 33.007 68.7506 33.4982 69.0151 36.3502C69.4854 41.4676 67.7879 46.453 68.4787 51.5338C67.7806 54.6571 67.3544 57.9123 64.4224 59.9651C64.4812 56.8859 63.1438 54.9943 59.8885 55.1996C56.3907 55.4122 53.2383 56.2553 53.3192 60.7716C51.1367 60.5883 48.8661 60.7203 47.1686 58.9314C47.7712 58.6601 49.1159 58.0516 48.3297 57.7143C44.8098 56.2114 46.5734 54.0266 47.1172 51.8564C47.3597 50.8813 48.5501 49.6716 46.6322 48.6305C44.1852 51.6218 42.8919 54.877 43.6782 58.7847C39.9526 59.078 36.1977 59.0927 34.6692 63.7042C34.3679 64.6133 32.7293 63.5429 32.1341 62.7804C30.6791 60.9256 29.4005 58.9314 28.0558 56.9958C30.7158 57.0472 33.2216 58.2935 35.9625 57.8903C38.1597 57.5677 38.5491 56.5119 37.2779 54.9283C35.5584 52.7802 33.1408 52.113 30.4734 52.5236C27.7177 52.9488 28.2027 55.1776 28.0925 57.0472C27.2475 55.5442 26.4097 54.0339 25.5647 52.5309C25.9468 47.4795 27.0711 42.5893 28.9155 37.8678L28.9008 37.8531ZM35.1909 40.7344C33.6772 41.0863 31.4727 40.7051 30.9289 42.9119C30.6791 43.9237 32.09 44.4149 32.8762 43.997C34.7868 42.9925 37.8731 44.7155 38.7034 42.0834C39.0561 40.9764 36.7194 40.7711 35.1909 40.7344ZM56.7435 42.3034C59.8077 44.2902 62.2179 44.8108 65.3924 44.8694C63.1879 41.6509 60.7924 40.9984 56.7435 42.3034Z" fill="#EFC09D"/>
<path d="M46.2722 89.5036C48.9617 89.4523 51.6438 89.3936 54.3333 89.3423C59.7637 97.1137 68.464 98.2868 75.4449 92.1869C77.6641 92.2969 79.2734 93.5359 80.7136 95.0609C80.9341 99.0126 78.8325 101.461 75.5919 103.375C67.3471 108.236 59.117 107.29 51.0706 103.155C45.1773 100.127 44.2147 96.8351 46.2649 89.5036H46.2722Z" fill="#B2E2F9"/>
<path d="M75.4449 92.1796C68.464 98.2795 59.7636 97.1064 54.3333 89.335C57.3534 87.8613 60.3735 86.395 63.3937 84.9214C67.8173 85.2953 71.3004 88.0813 75.3126 89.5036C75.3567 90.3907 75.4081 91.2852 75.4522 92.1723L75.4449 92.1796Z" fill="#F1C2A0"/>
<path d="M75.3125 89.511C71.3003 88.0886 67.8172 85.2953 63.3936 84.9287C70.176 79.3128 73.4828 71.9226 74.438 63.3446C74.7026 63.3006 74.9745 63.286 75.2463 63.2933C75.4153 65.6761 74.7393 68.1835 76.2677 70.3683C75.7534 76.7394 76.6572 83.1838 75.3125 89.5183V89.511Z" fill="#E0A683"/>
<path d="M81.6468 67.0253C81.6395 66.1895 81.7497 65.4343 82.7564 65.207C82.6682 65.9842 82.4331 66.666 81.6468 67.0253Z" fill="#E25002"/>
<path d="M74.1956 51.5336C74.4748 49.6054 74.6732 47.6625 75.07 45.7563C75.4007 44.1653 75.6432 42.3691 78.024 42.5157C79.9787 42.633 81.6614 43.2562 82.3668 45.1771C83.0355 47.01 82.5652 48.6229 81.0368 50.0599C79.4569 51.5409 76.5544 51.4236 76.0914 54.1949C75.5623 54.1729 75.0333 54.1436 74.5042 54.1216C74.4013 53.2638 74.2984 52.406 74.1956 51.5482V51.5336Z" fill="#F1BE99"/>
<path d="M53.3118 60.7639C53.231 56.2477 56.3834 55.4046 59.8812 55.1919C63.1365 54.994 64.4812 56.8782 64.4151 59.9575C63.7905 61.1085 62.8793 61.9223 61.586 62.2596C59.0435 60.7933 56.0086 61.805 53.4 60.6466L53.3118 60.7566V60.7639Z" fill="#E3AB85"/>
<path d="M43.6708 58.7773C42.8845 54.8695 44.1778 51.6143 46.6248 48.623C48.5427 49.6715 47.3523 50.8812 47.1098 51.8489C46.5734 54.0191 44.8098 56.1966 48.3223 57.7069C49.1085 58.0441 47.7638 58.6526 47.1612 58.9239C45.9708 59.4958 44.7951 59.7817 43.6708 58.7773Z" fill="#6D594D"/>
<path d="M47.2494 64.2027C48.4251 64.4373 50.1667 63.5062 50.6076 65.2804C51.0558 67.0767 49.1379 67.15 48.1018 67.7292C47.2494 68.2057 46.2059 68.3377 45.2507 68.6236C44.9714 68.345 44.6849 68.0664 44.4056 67.7878L44.4497 67.8245C44.2219 66.7761 43.5238 66.6221 42.6126 66.8787L42.6347 66.9007C41.8337 62.0325 45.4564 64.6792 47.2421 64.2027H47.2494Z" fill="#6D594D"/>
<path d="M74.5041 54.1143C75.0332 54.1436 75.5623 54.1656 76.0914 54.1876C76.0767 57.2448 76.6939 60.3608 75.239 63.286C74.9671 63.2787 74.6952 63.286 74.4307 63.3374C74.4527 60.2654 74.4821 57.1862 74.5041 54.1143Z" fill="#E1834E"/>
<path d="M53.3999 60.6543C56.0085 61.8127 59.0434 60.7936 61.5859 62.2672C58.5217 63.4183 55.3986 64.8846 53.3999 60.6543Z" fill="#EFC09D"/>
<path d="M47.2496 64.2027C45.4639 64.6792 41.8412 62.0252 42.6422 66.9007C40.5626 66.2115 39.9527 64.1954 41.2754 63.1616C43.1051 61.732 45.6917 61.4094 47.2496 64.2027Z" fill="#DBA07F"/>
<path d="M42.6128 66.8786C43.524 66.6219 44.2147 66.7759 44.4499 67.8243C43.6489 67.8756 42.8994 67.8243 42.6128 66.8786Z" fill="#DBA07F"/>
<path d="M44.4058 67.7876C44.685 68.0662 44.9716 68.3448 45.2508 68.6234C44.9716 68.3448 44.685 68.0662 44.4058 67.7876Z" fill="#DBA07F"/>
<path d="M28.0778 57.0322C28.188 55.1626 27.703 52.9265 30.4586 52.5086C33.126 52.098 35.5436 52.7725 37.2631 54.9133C38.5344 56.497 38.1449 57.5527 35.9478 57.8753C33.2069 58.2785 30.7011 57.0322 28.041 56.9808L28.0778 57.0248V57.0322Z" fill="#E3AB85"/>
<path d="M35.1836 40.7344C36.712 40.7784 39.0488 40.9763 38.6961 42.0834C37.8657 44.7154 34.7794 42.9925 32.8689 43.9969C32.0826 44.4075 30.6717 43.9236 30.9216 42.9118C31.4654 40.6977 33.6772 41.0863 35.1836 40.7344Z" fill="#705B4F"/>
<path d="M56.7361 42.3031C60.785 41.0054 63.1805 41.6579 65.385 44.8691C62.2106 44.8105 59.8003 44.2899 56.7361 42.3031Z" fill="#705B4F"/>
<path d="M37.447 50.5879C38.2586 50.5879 38.9166 49.9314 38.9166 49.1216C38.9166 48.3118 38.2586 47.6553 37.447 47.6553C36.6353 47.6553 35.9773 48.3118 35.9773 49.1216C35.9773 49.9314 36.6353 50.5879 37.447 50.5879Z" fill="#705B4F"/>
<path d="M56.5524 50.5879C57.3641 50.5879 58.0221 49.9314 58.0221 49.1216C58.0221 48.3118 57.3641 47.6553 56.5524 47.6553C55.7408 47.6553 55.0828 48.3118 55.0828 49.1216C55.0828 49.9314 55.7408 50.5879 56.5524 50.5879Z" fill="#705B4F"/>
</g>
<defs>
<clipPath id="clip0_230_202">
<rect width="116" height="116" fill="white"/>
</clipPath>
</defs>
</svg>
