<svg width="14" height="14" viewBox="0 0 14 14" fill="none" xmlns="http://www.w3.org/2000/svg">
<path d="M3.77968 9.6535C4.06682 9.93963 4.36733 10.2394 4.66115 10.5323C4.74796 10.6141 4.84145 10.6958 4.91491 10.7912C5.20873 11.1591 5.19537 11.6837 4.88819 11.9902C4.58102 12.2968 4.10021 12.3309 3.74629 12.0243C3.43243 11.745 3.15197 11.4316 2.85814 11.1182C2.77133 11.0228 2.70455 10.9002 2.60439 10.7571C2.37734 11.0024 2.21708 11.1659 2.05681 11.343C2.37734 11.6837 2.69788 11.9834 2.97167 12.3309C3.15197 12.5557 3.31223 12.8282 3.37233 13.1007C3.45247 13.4345 3.28552 13.7207 2.97167 13.8773C2.65781 14.034 2.31724 14.0477 2.06349 13.8024C1.42242 13.1825 0.788027 12.5489 0.193703 11.8881C-0.113476 11.5542 -0.04002 11.0637 0.313903 10.7026C1.20873 9.78294 2.11023 8.88367 3.00506 7.97077C3.56599 7.40532 4.11357 6.82625 4.68786 6.27442C4.87484 6.0973 4.88152 5.96785 4.76799 5.74304C3.82642 3.88318 4.374 1.75082 6.08352 0.606298C7.32559 -0.224846 9.08853 -0.218033 10.3106 0.647174C11.6595 1.60094 12.2004 2.94985 11.9399 4.58489C11.6795 6.21311 10.551 7.37807 9.01507 7.71189C8.08686 7.91627 7.19203 7.80727 6.33728 7.36445C6.23043 7.30995 6.01674 7.30995 5.93661 7.38489C5.22876 8.07978 4.54763 8.7951 3.85314 9.50362C3.82642 9.53087 3.81975 9.56493 3.77968 9.64669M8.16031 6.11092C9.40238 6.11092 10.344 5.15715 10.3373 3.90362C10.3373 2.65009 9.38903 1.69632 8.14696 1.69632C6.91824 1.69632 6.00339 2.63647 6.00339 3.89C6.00339 5.17077 6.90489 6.10411 8.16031 6.10411" fill="#B3B6BA"/>
</svg>
