<svg width="23" height="20" viewBox="0 0 23 20" fill="none" xmlns="http://www.w3.org/2000/svg">
<g clip-path="url(#clip0_222_88)">
<path d="M11.4894 0.188992C17.589 0.201487 22.5071 4.51228 22.5 9.85392C22.4929 15.1893 17.5463 19.5126 11.4609 19.4939C5.38259 19.4814 0.485796 15.1456 0.500031 9.7852C0.514266 4.50603 5.46089 0.176497 11.4894 0.188992ZM11.4751 9.86017C13.6602 9.86641 15.4182 8.34202 15.4324 6.43652C15.4395 4.53727 13.6744 2.98164 11.5107 2.96914C9.38259 2.96289 7.589 4.51853 7.58188 6.38654C7.57476 8.30453 9.3043 9.85392 11.4822 9.86017M11.5178 16.7262C13.3257 16.7012 14.9555 16.2264 16.379 15.2393C17.4466 14.5021 17.4538 13.465 16.4217 12.7278C15.4111 12.0093 14.258 11.5595 12.9769 11.3533C12.2082 11.2284 11.9164 11.5033 12.1655 12.1655C12.3862 12.734 12.6566 13.2901 12.9057 13.8461C13.0125 14.0897 13.0338 14.3271 12.8203 14.5333C11.8737 15.4267 11.4751 15.7828 10.3079 14.6645C10.2936 14.652 10.2865 14.6458 10.2723 14.6333C10.0089 14.4084 9.95911 14.1522 10.0943 13.8461C10.3506 13.2588 10.5997 12.6653 10.8417 12.0718C11.0552 11.547 10.7634 11.2346 10.1513 11.3346C8.78473 11.547 7.56053 12.0281 6.50003 12.8152C5.61035 13.4775 5.60323 14.4583 6.50003 15.1143C7.95199 16.1764 9.6317 16.6887 11.5107 16.7262" fill="#00B3E6"/>
<path d="M11.468 9.86004C9.29719 9.85379 7.56053 8.3044 7.56765 6.38641C7.57477 4.5184 9.36836 2.96277 11.4965 2.96901C13.6602 2.97526 15.4324 4.53714 15.4182 6.43639C15.4111 8.34189 13.6459 9.87253 11.4609 9.86004" fill="white"/>
<path d="M11.5107 16.7263C9.63168 16.695 7.95197 16.1765 6.50001 15.1144C5.60321 14.4584 5.61033 13.4776 6.50001 12.8153C7.56051 12.0281 8.78471 11.5471 10.1513 11.3347C10.7634 11.2409 11.0481 11.5533 10.8416 12.0719C10.5997 12.6654 10.3505 13.2589 10.0943 13.8462C9.95908 14.1523 10.0089 14.4084 10.2723 14.6334C10.2865 14.6458 10.2936 14.6521 10.3078 14.6646C11.4751 15.7829 11.8737 15.4268 12.8203 14.5334C13.0338 14.3335 13.0196 14.0898 12.9057 13.8462C12.6566 13.2839 12.3861 12.7341 12.1655 12.1656C11.9093 11.5033 12.2011 11.2284 12.9769 11.3534C14.258 11.5596 15.4039 12.0094 16.4217 12.7279C17.4609 13.4651 17.4466 14.4959 16.379 15.2394C14.9555 16.2265 13.3185 16.695 11.5178 16.7263" fill="white"/>
</g>
<defs>
<clipPath id="clip0_222_88">
<rect width="22" height="19.3111" fill="white" transform="translate(0.5 0.188965)"/>
</clipPath>
</defs>
</svg>
