<svg width="9" height="14" viewBox="0 0 9 14" fill="none" xmlns="http://www.w3.org/2000/svg">
<g clip-path="url(#clip0_44_335)">
<path d="M4.51165 10.0312C5.16394 10.0969 5.83952 10.0969 6.47628 10.2428C7.95169 10.5857 8.98447 11.8916 9 13.3142C9 13.7301 8.72822 14 8.28559 14C5.76187 14 3.23037 14 0.706646 14C0.271789 14 0.00776805 13.7373 0.00776805 13.3288C2.73855e-06 11.7019 1.41329 10.2428 3.14496 10.1334C3.59534 10.1042 4.0535 10.1334 4.51165 10.1334C4.51165 10.1042 4.51165 10.075 4.51165 10.0458" fill="#B3B6BA"/>
<path d="M8.18464 3.49455C8.18464 5.47162 6.59275 6.9672 4.49612 6.9672C2.41501 6.9672 0.776533 5.44244 0.792064 3.49455C0.807594 1.56855 2.283 -0.00727024 4.51941 2.52298e-05C6.92666 0.0073207 8.27783 1.86037 8.18464 3.49455Z" fill="#B3B6BA"/>
</g>
<defs>
<clipPath id="clip0_44_335">
<rect width="9" height="14" fill="white"/>
</clipPath>
</defs>
</svg>
