<svg width="39" height="31" viewBox="0 0 39 31" fill="none" xmlns="http://www.w3.org/2000/svg">
<g clip-path="url(#clip0_28_94)">
<path d="M39 11.5456V13.2782C38.9562 13.3006 38.9708 13.3454 38.9635 13.3828C38.9125 14.0101 38.8103 14.6374 38.6717 15.2498C37.2856 21.2242 31.6902 25.2794 25.7228 24.6297C24.0303 24.443 22.4473 23.9277 20.9736 23.0689C20.4703 22.7701 19.9742 22.449 19.5292 22.0607C19.5584 22.0233 19.5875 21.9785 19.624 21.9487C20.193 21.4931 20.7037 20.9778 21.1706 20.4177C21.9512 19.4917 22.5786 18.4611 23.0673 17.3408C23.6583 15.9742 23.9865 14.5478 24.0668 13.0691C24.1178 12.0684 24.0668 11.0751 23.8844 10.0819C23.5853 8.4837 23.009 6.99755 22.1409 5.63089C21.5427 4.68992 20.835 3.83856 20.018 3.09922C19.8502 2.94985 19.697 2.77062 19.4927 2.67353C19.4927 2.66607 19.4927 2.6586 19.4927 2.64366C19.5219 2.62873 19.5511 2.61379 19.573 2.59139C21.4259 1.13511 23.4905 0.291217 25.803 0.0597068C27.4663 -0.104591 29.1005 0.0746429 30.6908 0.612345C33.0909 1.42637 35.0606 2.87517 36.5853 4.93636C37.8693 6.67643 38.6425 8.6256 38.9125 10.7913C38.9416 11.0453 38.9416 11.2992 39 11.5456Z" fill="#F69D1B"/>
<path d="M35.1627 31C35.0898 30.9403 34.995 30.9477 34.9074 30.9179C34.2435 30.6938 33.8204 30.0665 33.8058 29.2973C33.7912 28.4161 34.3457 27.7215 35.1919 27.5871C35.6588 27.5124 36.0746 27.6319 36.3956 28.0128C36.454 27.9829 36.4248 27.9306 36.4248 27.8933C36.4248 27.4228 36.4248 26.9523 36.4248 26.4818C36.4248 26.3698 36.4394 26.325 36.5634 26.3325C36.7166 26.3474 36.8698 26.3325 37.0157 26.3325C37.096 26.3325 37.1251 26.3474 37.1251 26.4445C37.1251 27.9008 37.1251 29.357 37.1251 30.8133C37.1251 30.9104 37.0887 30.9328 37.0011 30.9253C36.8479 30.9253 36.6874 30.9253 36.5269 30.9253C36.4467 30.9253 36.4102 30.9104 36.4175 30.8208C36.4248 30.7386 36.4175 30.649 36.4175 30.4997C36.2132 30.8208 35.9287 30.9104 35.6442 30.9925H35.1554L35.1627 31ZM35.5202 28.2294C34.9512 28.2294 34.5499 28.67 34.5499 29.2824C34.5499 29.8947 34.9731 30.3503 35.5421 30.3428C36.0819 30.3428 36.4978 29.8723 36.4978 29.2749C36.4978 28.6625 36.0892 28.2219 35.5202 28.2219V28.2294Z" fill="#020202"/>
<path d="M28.6627 31C28.6482 30.9477 28.5971 30.9626 28.5679 30.9552C27.8092 30.7386 27.3423 30.1038 27.3423 29.2898C27.3423 28.2816 28.0645 27.5423 29.0348 27.5796C29.3996 27.5945 29.6987 27.7364 29.9394 28.0277C29.954 28.0127 29.9613 28.0053 29.9613 27.9978C29.9661 27.7638 30.0804 27.6468 30.3042 27.6468C30.5279 27.6468 30.647 27.7688 30.6616 28.0127C30.6616 28.9313 30.6616 29.8499 30.6616 30.7685C30.6616 30.9104 30.6251 30.9552 30.4938 30.9328C30.3917 30.9178 30.2896 30.9328 30.1874 30.9328C30.0367 30.9328 29.9613 30.8581 29.9613 30.7087C29.9613 30.6639 29.9613 30.6116 29.9613 30.5071C29.757 30.8207 29.4725 30.9178 29.188 31H28.67H28.6627ZM29.0494 28.2293C28.4804 28.2293 28.0791 28.6625 28.0791 29.2823C28.0791 29.8947 28.5022 30.3503 29.0713 30.3503C29.6111 30.3503 30.0269 29.8798 30.0269 29.2898C30.0269 28.6774 29.6184 28.2368 29.0567 28.2368L29.0494 28.2293Z" fill="#020202"/>
<path d="M9.0679 31C8.98036 30.9701 8.88552 30.9477 8.79798 30.9104C8.09764 30.6714 7.66723 29.9843 7.711 29.1703C7.76206 28.2144 8.4697 27.5348 9.39618 27.5721C9.71717 27.5871 9.99439 27.6991 10.2278 27.9306C10.2497 27.953 10.2643 27.9978 10.3154 27.9978C10.3519 27.9456 10.3373 27.8858 10.33 27.841C10.3008 27.6618 10.3737 27.617 10.5415 27.6319C10.702 27.6543 10.9136 27.5647 11.0084 27.6618C11.0887 27.7514 11.0303 27.968 11.0303 28.1248C11.0303 28.9985 11.0303 29.8723 11.0303 30.7461C11.0303 30.9029 10.9865 30.9403 10.8479 30.9178C10.8114 30.9178 10.775 30.9178 10.7312 30.9178C10.6072 30.9178 10.4613 30.9552 10.3664 30.9029C10.257 30.8432 10.3664 30.6714 10.3008 30.537C10.1403 30.7386 9.94332 30.873 9.70258 30.9403C9.64422 30.9552 9.57127 30.9253 9.5202 30.9851H9.0679V31ZM8.41863 29.2749C8.41863 29.8873 8.83445 30.3428 9.40348 30.3428C9.93603 30.3428 10.3664 29.8798 10.3664 29.2823C10.3664 28.67 9.95791 28.2219 9.39618 28.2219C8.82716 28.2219 8.42592 28.655 8.42592 29.2749H8.41863Z" fill="#020202"/>
<path d="M19.4343 30.9999C19.3541 30.9402 19.252 30.9477 19.1644 30.9178C18.5079 30.6938 18.1577 30.2158 18.0774 29.5287C18.0045 28.879 18.1577 28.2816 18.7048 27.8783C19.1936 27.5198 19.7407 27.4601 20.2879 27.6991C20.8204 27.9306 21.0612 28.3936 21.1268 28.9612C21.1414 29.118 21.1341 29.2823 21.1487 29.4391C21.156 29.5586 21.1195 29.5885 21.0028 29.5885C20.3098 29.5885 19.6167 29.5885 18.9237 29.5885C18.7851 29.5885 18.7559 29.6109 18.807 29.7528C18.9675 30.2158 19.427 30.4622 19.9669 30.3577C20.1857 30.3129 20.3973 30.2382 20.5724 30.0963C20.6599 30.0291 20.6964 30.059 20.7402 30.1411C20.7985 30.2457 20.8642 30.3502 20.9372 30.4473C20.9955 30.5295 20.9882 30.5743 20.908 30.6265C20.6453 30.8058 20.3681 30.9178 20.0544 30.9701C20.0253 30.9701 19.9888 30.9551 19.9742 30.9999H19.4198H19.4343ZM19.6313 28.9761C19.8721 28.9761 20.1201 28.9761 20.3608 28.9761C20.4557 28.9761 20.4776 28.9612 20.4557 28.8566C20.3608 28.4309 20.0909 28.1994 19.6824 28.1845C19.2666 28.177 18.9164 28.4459 18.8215 28.8491C18.7997 28.9388 18.8143 28.9761 18.9164 28.9761C19.1571 28.9761 19.3906 28.9761 19.6313 28.9761Z" fill="#040404"/>
<path d="M12.679 31C12.5769 30.9253 12.4529 30.9402 12.3434 30.9029C12.1319 30.8357 11.9276 30.7535 11.7379 30.6341C11.6796 30.5967 11.6577 30.5668 11.7088 30.5071C11.7088 30.5071 11.7088 30.4996 11.716 30.4922C11.8036 30.3503 11.862 30.1561 11.986 30.0889C12.11 30.0142 12.2486 30.2009 12.3872 30.2532C12.7301 30.3727 13.073 30.4175 13.4231 30.3353C13.4742 30.3204 13.5253 30.3055 13.5763 30.283C13.7076 30.2233 13.8098 30.1337 13.8098 29.9769C13.8098 29.8126 13.6785 29.7603 13.5544 29.708C13.3137 29.6109 13.0584 29.6184 12.803 29.5736C12.6279 29.5437 12.4529 29.4914 12.2924 29.4093C11.7452 29.1255 11.6212 28.431 12.037 27.9679C12.2486 27.7364 12.5112 27.6244 12.8103 27.5871C13.321 27.5199 13.8244 27.5721 14.2985 27.8111C14.408 27.8634 14.4517 27.9157 14.3715 28.0426C14.2912 28.1696 14.2621 28.3638 14.1526 28.4384C14.0286 28.5131 13.8827 28.3563 13.7441 28.3115C13.4815 28.2368 13.2189 28.1845 12.9416 28.2219C12.8541 28.2368 12.7739 28.2592 12.7009 28.304C12.5915 28.3712 12.5258 28.4683 12.5404 28.6027C12.555 28.7297 12.6498 28.7745 12.7447 28.8118C12.9489 28.8865 13.1605 28.8865 13.3648 28.9164C13.5836 28.9463 13.7879 28.9985 13.9848 29.0956C14.6268 29.4168 14.6925 30.2606 14.1089 30.6863C13.8973 30.8432 13.6566 30.9178 13.4012 30.9552C13.3721 30.9552 13.3356 30.9402 13.321 30.9851H12.6717L12.679 31Z" fill="#030303"/>
<path d="M16.4506 31C16.4506 31 16.4141 30.9701 16.385 30.9626C15.9254 30.8208 15.6919 30.537 15.67 30.0366C15.6481 29.5138 15.6554 28.9836 15.6554 28.4608C15.6554 28.3339 15.6263 28.2816 15.4949 28.2965C15.3709 28.3115 15.2469 28.2965 15.1229 28.2965C15.0354 28.2965 15.0135 28.2667 15.0135 28.1845C15.0135 28.0426 15.0135 27.8933 15.0135 27.7514C15.0135 27.6692 15.0281 27.6319 15.1156 27.6394C15.2469 27.6468 15.3855 27.6394 15.5241 27.6394C15.6336 27.6468 15.6554 27.602 15.6554 27.4975C15.6554 27.251 15.6554 26.9971 15.6554 26.7507C15.6554 26.6685 15.6773 26.6312 15.7649 26.6386C15.9254 26.6386 16.0932 26.6386 16.2536 26.6386C16.3412 26.6386 16.3631 26.661 16.3631 26.7507C16.3631 26.9971 16.3631 27.2361 16.3631 27.4825C16.3631 27.6169 16.4068 27.6468 16.5236 27.6394C16.8081 27.6319 17.0999 27.6394 17.3844 27.6394C17.4719 27.6394 17.5084 27.6543 17.5011 27.7588C17.4938 27.9007 17.5011 28.0501 17.5011 28.192C17.5011 28.2816 17.4719 28.304 17.3917 28.304C17.0999 28.304 16.8081 28.304 16.5163 28.304C16.3995 28.304 16.3558 28.3189 16.3631 28.4534C16.3704 28.8716 16.3631 29.2973 16.3631 29.7155C16.3631 30.2233 16.5892 30.41 17.078 30.298C17.1364 30.2831 17.1947 30.2681 17.2458 30.2457C17.4428 30.171 17.4428 30.171 17.5084 30.3801C17.5303 30.4399 17.5522 30.5071 17.5668 30.5668C17.6397 30.7834 17.6397 30.7909 17.4282 30.8656C17.2823 30.9178 17.1291 30.9626 16.9759 31.0075H16.4579L16.4506 31Z" fill="#020202"/>
<path d="M25.5477 31C25.482 30.9403 25.3872 30.9477 25.307 30.9253C24.5774 30.7013 24.1324 30.0292 24.1616 29.2375C24.1981 28.1621 24.9933 27.4527 26.1678 27.5946C26.4377 27.6244 26.693 27.7215 26.9192 27.8784C26.9848 27.9232 27.0213 27.9605 26.963 28.0426C26.8827 28.1621 26.8098 28.2966 26.7441 28.431C26.693 28.5281 26.6566 28.5206 26.5763 28.4609C26.248 28.2443 25.8979 28.1547 25.5112 28.2891C24.9787 28.4833 24.7306 29.1031 24.9349 29.708C25.11 30.2308 25.6571 30.4698 26.2334 30.2831C26.3648 30.2383 26.4961 30.1785 26.6055 30.0889C26.6639 30.0441 26.693 30.0516 26.7295 30.1113C26.8025 30.2532 26.8827 30.3876 26.9703 30.5221C27.014 30.5967 27.0067 30.6341 26.9411 30.6789C26.7295 30.8282 26.4961 30.9328 26.2407 30.9627C26.2116 30.9627 26.1824 30.9627 26.1751 30.9925H25.555L25.5477 31Z" fill="#030303"/>
<path d="M19.478 22.0532C18.8944 22.546 18.2524 22.9568 17.574 23.3153C15.6553 24.3309 13.6054 24.779 11.446 24.6744C6.09137 24.4205 1.48082 20.4624 0.299004 15.1078C-0.970357 9.35741 1.83829 3.55472 7.08352 1.10519C8.99485 0.209016 11.001 -0.134515 13.0947 0.0447186C15.4803 0.253825 17.6105 1.13506 19.5072 2.63614C19.5072 2.64361 19.5072 2.65108 19.5072 2.66601C18.7485 3.25599 18.0846 3.95799 17.501 4.7272C16.7277 5.72793 16.1295 6.8332 15.6918 8.0281C15.2541 9.23046 15.0061 10.4627 14.9404 11.7397C14.8966 12.6956 14.955 13.6516 15.1301 14.5925C15.3417 15.7501 15.6991 16.8479 16.2098 17.9009C16.5818 18.6626 17.0268 19.3796 17.5521 20.0517C17.946 20.5595 18.3692 21.0375 18.8506 21.4632C19.0695 21.6573 19.281 21.859 19.4999 22.0606L19.478 22.0532Z" fill="#EA001B"/>
<path d="M19.4781 22.0533C19.2593 21.8517 19.0477 21.65 18.8288 21.4559C18.3474 21.0302 17.9242 20.5522 17.5303 20.0444C17.0051 19.3797 16.56 18.6628 16.188 17.8936C15.6773 16.848 15.3199 15.7428 15.1083 14.5852C14.9405 13.6442 14.8749 12.6883 14.9186 11.7324C14.9843 10.4554 15.2323 9.21567 15.67 8.02077C16.1077 6.82588 16.7132 5.72807 17.4792 4.71988C18.0701 3.95067 18.7267 3.24867 19.4854 2.65869C19.697 2.75578 19.8502 2.93501 20.0107 3.08437C20.835 3.83118 21.5426 4.67507 22.1336 5.61605C22.9944 6.98271 23.578 8.46886 23.8771 10.067C24.0595 11.0528 24.1105 12.0535 24.0595 13.0543C23.9792 14.5404 23.651 15.9668 23.06 17.326C22.5713 18.4462 21.9439 19.4768 21.1633 20.4029C20.6964 20.963 20.1785 21.4783 19.6167 21.9338C19.5802 21.9637 19.5511 22.0085 19.5219 22.0458C19.5073 22.0458 19.4854 22.0458 19.4708 22.0458L19.4781 22.0533Z" fill="#FE5A00"/>
<path d="M2.64815 28.0351C3.13692 27.3929 4.21661 27.4078 4.66161 28.1322C5.07014 27.5945 5.60999 27.4676 6.23008 27.6319C6.69697 27.7513 7.01066 28.1248 7.04714 28.6176C7.1055 29.357 7.06173 30.1038 7.06902 30.8431C7.06902 30.9253 7.03255 30.9327 6.96689 30.9327C6.79181 30.9327 6.60943 30.9253 6.43434 30.9327C6.32491 30.9327 6.28844 30.9103 6.28844 30.7909C6.28844 30.2681 6.28844 29.7379 6.28844 29.2151C6.28844 29.1105 6.28844 29.006 6.26655 28.9014C6.21549 28.4907 5.98204 28.2666 5.5954 28.2592C5.19416 28.2592 4.90236 28.4907 4.8367 28.879C4.80752 29.0583 4.81481 29.23 4.81481 29.4093C4.81481 29.8723 4.81481 30.3428 4.81481 30.8058C4.81481 30.9103 4.78563 30.9402 4.6908 30.9327C4.5376 30.9253 4.3844 30.9253 4.23849 30.9327C4.12907 30.9402 4.11448 30.8954 4.11448 30.7983C4.11448 30.2681 4.11448 29.7379 4.11448 29.2002C4.11448 29.1031 4.11448 29.0135 4.09989 28.9164C4.03423 28.2666 3.53816 28.1621 3.11504 28.2965C2.82323 28.3861 2.68462 28.6176 2.65544 28.9164C2.61167 29.4317 2.64815 29.947 2.63356 30.4623C2.63356 30.6116 2.67733 30.8058 2.60438 30.8954C2.53142 30.985 2.32716 30.9178 2.18855 30.9253C1.93322 30.9253 1.93322 30.9253 1.93322 30.6714C1.93322 29.708 1.93322 28.7446 1.93322 27.7812C1.93322 27.6617 1.9624 27.6319 2.07183 27.6393C2.21773 27.6468 2.36364 27.6468 2.50954 27.6393C2.61167 27.6393 2.64085 27.6692 2.63356 27.7663C2.62626 27.841 2.63356 27.9156 2.63356 28.0351H2.64815Z" fill="#020202"/>
<path d="M22.6223 27.9903C22.936 27.5497 23.381 27.5422 23.8333 27.5796C23.9136 27.5796 23.9355 27.6169 23.9063 27.6991C23.8552 27.8559 23.8042 28.0127 23.7677 28.177C23.7458 28.2741 23.702 28.289 23.6218 28.2666C23.5051 28.2368 23.3883 28.2144 23.2716 28.2218C22.8777 28.2368 22.6369 28.5205 22.6296 29.006C22.6223 29.5959 22.6296 30.1785 22.6296 30.7684C22.6296 30.9029 22.6004 30.9551 22.4618 30.9402C22.3305 30.9253 22.1919 30.9253 22.0533 30.9402C21.9366 30.9477 21.9147 30.9029 21.9147 30.7908C21.9147 29.7901 21.9147 28.7819 21.9147 27.7812C21.9147 27.6766 21.9366 27.6318 22.046 27.6393C22.1992 27.6468 22.3524 27.6468 22.4983 27.6393C22.6004 27.6393 22.6296 27.6692 22.6223 27.7663C22.615 27.8409 22.6223 27.9156 22.6223 27.9978V27.9903Z" fill="#050505"/>
<path d="M32.303 27.9904C32.624 27.5573 33.0617 27.5349 33.514 27.5871C33.587 27.5946 33.6162 27.617 33.5797 27.7066C33.5213 27.8635 33.4776 28.0203 33.4411 28.1846C33.4192 28.2817 33.3681 28.2891 33.2879 28.2667C33.1639 28.2369 33.0471 28.2145 32.9158 28.2219C32.5365 28.2518 32.3103 28.5207 32.303 28.9762C32.2957 29.5737 32.2957 30.1711 32.303 30.7686C32.303 30.9104 32.2666 30.9478 32.1352 30.9328C31.9602 30.9104 31.7267 31.0075 31.6246 30.8955C31.537 30.7984 31.5954 30.5594 31.5954 30.3802C31.5954 29.5139 31.5954 28.6551 31.5954 27.7888C31.5954 27.6693 31.6173 27.6245 31.7486 27.632C31.8945 27.6469 32.0404 27.6394 32.1863 27.632C32.2884 27.632 32.3249 27.6544 32.3103 27.7589C32.303 27.8336 32.3103 27.9083 32.3103 27.9904H32.303Z" fill="#040404"/>
</g>
<defs>
<clipPath id="clip0_28_94">
<rect width="39" height="31" fill="white"/>
</clipPath>
</defs>
</svg>
