<svg width="7" height="7" viewBox="0 0 7 7" fill="none" xmlns="http://www.w3.org/2000/svg">
<path d="M4.03604 2.975H4.3023C5.01702 2.975 5.72472 2.975 6.43944 2.975C6.82482 2.975 7.05606 3.241 6.98599 3.598C6.93694 3.864 6.76877 4.004 6.48148 4.011C5.75275 4.011 5.02402 4.018 4.2953 4.011C4.07808 4.011 4.01502 4.074 4.01502 4.291C4.02903 5.012 4.02202 5.733 4.01502 6.447C4.01502 6.86 3.66466 7.105 3.3003 6.958C3.08308 6.874 2.97798 6.706 2.97798 6.468C2.97798 5.733 2.97798 4.998 2.97798 4.263C2.97798 4.067 2.92192 4.004 2.72573 4.004C2.004 4.011 1.28228 4.004 0.560561 4.004C0.203203 4.004 0 3.822 0 3.493C0 3.178 0.224224 2.975 0.581582 2.975C1.31031 2.975 2.03904 2.975 2.76777 2.975C2.93594 2.975 2.99199 2.926 2.98499 2.758C2.97798 2.03 2.98499 1.302 2.98499 0.574C2.98499 0.217 3.17417 0 3.4965 0C3.81882 0 4.02202 0.21 4.02202 0.574C4.02202 1.281 4.02202 1.981 4.02202 2.688C4.02202 2.772 4.02903 2.863 4.03604 2.975Z" fill="black"/>
</svg>
