<svg width="17" height="17" viewBox="0 0 17 17" fill="none" xmlns="http://www.w3.org/2000/svg">
<path d="M8.5 17C13.1917 17 17 13.1991 17 8.5C17 3.80087 13.1917 0 8.5 0C3.8083 0 0 3.8083 0 8.5C0 13.1917 3.80087 17 8.5 17ZM8.5 4.25371C8.93799 4.25371 9.29432 4.61004 9.29432 5.04804V8.76725C9.29432 9.21266 8.93799 9.56157 8.5 9.56157C8.06201 9.56157 7.70568 9.20524 7.70568 8.76725V5.04804C7.70568 4.60262 8.06201 4.25371 8.5 4.25371ZM9.56157 11.6921C9.56157 12.2786 9.08646 12.7537 8.5 12.7537C7.91354 12.7537 7.43843 12.2786 7.43843 11.6921C7.43843 11.1057 7.91354 10.6306 8.5 10.6306C9.08646 10.6306 9.56157 11.1057 9.56157 11.6921Z" fill="#B3B6BA"/>
</svg>
