<svg width="16" height="16" viewBox="0 0 16 16" fill="none" xmlns="http://www.w3.org/2000/svg">
<path d="M14.3574 11.6794H13.102C13.0163 11.6794 12.936 11.7169 12.8824 11.783C12.7574 11.9348 12.6235 12.0812 12.4824 12.2205C11.9054 12.7981 11.222 13.2583 10.4699 13.5759C9.69072 13.905 8.85324 14.0738 8.0074 14.0723C7.15204 14.0723 6.32347 13.9044 5.5449 13.5759C4.79281 13.2583 4.10938 12.7981 3.5324 12.2205C2.95439 11.6449 2.4935 10.9627 2.17526 10.2116C1.8449 9.43301 1.67883 8.60622 1.67883 7.75086C1.67883 6.89551 1.84669 6.06872 2.17526 5.29015C2.49312 4.53836 2.95026 3.86158 3.5324 3.28122C4.11454 2.70086 4.79133 2.24372 5.5449 1.92586C6.32347 1.59729 7.15204 1.42944 8.0074 1.42944C8.86276 1.42944 9.69133 1.59551 10.4699 1.92586C11.2235 2.24372 11.9003 2.70086 12.4824 3.28122C12.6235 3.42229 12.7556 3.56872 12.8824 3.71872C12.936 3.78479 13.0181 3.82229 13.102 3.82229H14.3574C14.4699 3.82229 14.5395 3.69729 14.477 3.60265C13.1074 1.47408 10.711 0.0651498 7.98776 0.0722927C3.70919 0.0830069 0.278829 3.55622 0.321686 7.82944C0.364543 12.0348 3.78954 15.4294 8.0074 15.4294C10.7235 15.4294 13.1092 14.0223 14.477 11.8991C14.5378 11.8044 14.4699 11.6794 14.3574 11.6794ZM15.9449 7.63836L13.411 5.63836C13.3163 5.56336 13.1788 5.63122 13.1788 5.75086V7.10801H7.57169C7.49312 7.10801 7.42883 7.17229 7.42883 7.25086V8.25086C7.42883 8.32944 7.49312 8.39372 7.57169 8.39372H13.1788V9.75086C13.1788 9.87051 13.3181 9.93836 13.411 9.86336L15.9449 7.86336C15.962 7.85 15.9758 7.83293 15.9853 7.81344C15.9948 7.79394 15.9997 7.77255 15.9997 7.75086C15.9997 7.72918 15.9948 7.70778 15.9853 7.68829C15.9758 7.6688 15.962 7.65173 15.9449 7.63836Z" fill="#D9D9D9"/>
</svg>
