<svg width="39" height="31" viewBox="0 0 39 31" fill="none" xmlns="http://www.w3.org/2000/svg">
<g clip-path="url(#clip0_219_413)">
<path d="M39 11.5454V13.278C38.9562 13.3004 38.9708 13.3452 38.9635 13.3825C38.9125 14.0098 38.8103 14.6372 38.6717 15.2495C37.2856 21.224 31.6902 25.2792 25.7228 24.6294C24.0303 24.4427 22.4473 23.9274 20.9736 23.0686C20.4703 22.7699 19.9742 22.4488 19.5292 22.0604C19.5584 22.0231 19.5875 21.9783 19.624 21.9484C20.193 21.4929 20.7037 20.9776 21.1706 20.4174C21.9512 19.4914 22.5786 18.4608 23.0673 17.3406C23.6583 15.9739 23.9865 14.5475 24.0668 13.0689C24.1178 12.0681 24.0668 11.0749 23.8844 10.0816C23.5853 8.48346 23.009 6.99731 22.1409 5.63065C21.5427 4.68967 20.835 3.83831 20.018 3.09897C19.8502 2.94961 19.697 2.77038 19.4927 2.67329C19.4927 2.66582 19.4927 2.65835 19.4927 2.64342C19.5219 2.62848 19.5511 2.61355 19.573 2.59114C21.4259 1.13487 23.4905 0.290973 25.803 0.0594627C27.4663 -0.104835 29.1005 0.0743988 30.6908 0.612101C33.0909 1.42612 35.0606 2.87493 36.5853 4.93612C37.8693 6.67618 38.6425 8.62535 38.9125 10.7911C38.9416 11.045 38.9416 11.2989 39 11.5454Z" fill="#F69D1B"/>
<path d="M35.1627 30.9999C35.0898 30.9401 34.995 30.9476 34.9074 30.9177C34.2435 30.6937 33.8204 30.0664 33.8058 29.2972C33.7912 28.4159 34.3457 27.7214 35.1919 27.587C35.6588 27.5123 36.0746 27.6318 36.3956 28.0127C36.454 27.9828 36.4248 27.9305 36.4248 27.8932C36.4248 27.4227 36.4248 26.9522 36.4248 26.4817C36.4248 26.3697 36.4394 26.3249 36.5634 26.3323C36.7166 26.3473 36.8698 26.3323 37.0157 26.3323C37.096 26.3323 37.1251 26.3473 37.1251 26.4444C37.1251 27.9006 37.1251 29.3569 37.1251 30.8132C37.1251 30.9103 37.0887 30.9327 37.0011 30.9252C36.8479 30.9252 36.6874 30.9252 36.5269 30.9252C36.4467 30.9252 36.4102 30.9103 36.4175 30.8207C36.4248 30.7385 36.4175 30.6489 36.4175 30.4995C36.2132 30.8207 35.9287 30.9103 35.6442 30.9924H35.1554L35.1627 30.9999ZM35.5202 28.2292C34.9512 28.2292 34.5499 28.6698 34.5499 29.2822C34.5499 29.8946 34.9731 30.3502 35.5421 30.3427C36.0819 30.3427 36.4978 29.8722 36.4978 29.2748C36.4978 28.6624 36.0892 28.2218 35.5202 28.2218V28.2292Z" fill="#020202"/>
<path d="M28.6627 31.0001C28.6482 30.9478 28.5971 30.9628 28.5679 30.9553C27.8092 30.7387 27.3423 30.1039 27.3423 29.2899C27.3423 28.2817 28.0645 27.5424 29.0348 27.5797C29.3996 27.5947 29.6987 27.7366 29.9394 28.0278C29.954 28.0129 29.9613 28.0054 29.9613 27.9979C29.9661 27.7639 30.0804 27.6469 30.3042 27.6469C30.5279 27.6469 30.647 27.7689 30.6616 28.0129C30.6616 28.9314 30.6616 29.85 30.6616 30.7686C30.6616 30.9105 30.6251 30.9553 30.4938 30.9329C30.3917 30.918 30.2896 30.9329 30.1874 30.9329C30.0367 30.9329 29.9613 30.8582 29.9613 30.7088C29.9613 30.664 29.9613 30.6118 29.9613 30.5072C29.757 30.8209 29.4725 30.918 29.188 31.0001H28.67H28.6627ZM29.0494 28.2294C28.4804 28.2294 28.0791 28.6626 28.0791 29.2824C28.0791 29.8948 28.5022 30.3504 29.0713 30.3504C29.6111 30.3504 30.0269 29.8799 30.0269 29.2899C30.0269 28.6775 29.6184 28.2369 29.0567 28.2369L29.0494 28.2294Z" fill="#020202"/>
<path d="M9.0679 31.0001C8.98036 30.9702 8.88552 30.9478 8.79798 30.9105C8.09764 30.6715 7.66723 29.9845 7.711 29.1704C7.76206 28.2145 8.4697 27.5349 9.39618 27.5723C9.71717 27.5872 9.99439 27.6992 10.2278 27.9307C10.2497 27.9531 10.2643 27.998 10.3154 27.998C10.3519 27.9457 10.3373 27.8859 10.33 27.8411C10.3008 27.6619 10.3737 27.6171 10.5415 27.632C10.702 27.6544 10.9136 27.5648 11.0084 27.6619C11.0887 27.7515 11.0303 27.9681 11.0303 28.1249C11.0303 28.9987 11.0303 29.8724 11.0303 30.7462C11.0303 30.903 10.9865 30.9404 10.8479 30.918C10.8114 30.918 10.775 30.918 10.7312 30.918C10.6072 30.918 10.4613 30.9553 10.3664 30.903C10.257 30.8433 10.3664 30.6715 10.3008 30.5371C10.1403 30.7387 9.94332 30.8732 9.70258 30.9404C9.64422 30.9553 9.57127 30.9254 9.5202 30.9852H9.0679V31.0001ZM8.41863 29.275C8.41863 29.8874 8.83445 30.3429 9.40348 30.3429C9.93603 30.3429 10.3664 29.8799 10.3664 29.2825C10.3664 28.6701 9.95791 28.222 9.39618 28.222C8.82716 28.222 8.42592 28.6551 8.42592 29.275H8.41863Z" fill="#020202"/>
<path d="M19.4343 30.9999C19.3541 30.9402 19.252 30.9477 19.1644 30.9178C18.5079 30.6938 18.1577 30.2158 18.0774 29.5287C18.0045 28.879 18.1577 28.2816 18.7048 27.8783C19.1936 27.5198 19.7407 27.4601 20.2879 27.6991C20.8204 27.9306 21.0612 28.3936 21.1268 28.9612C21.1414 29.118 21.1341 29.2823 21.1487 29.4391C21.156 29.5586 21.1195 29.5885 21.0028 29.5885C20.3098 29.5885 19.6167 29.5885 18.9237 29.5885C18.7851 29.5885 18.7559 29.6109 18.807 29.7528C18.9675 30.2158 19.427 30.4622 19.9669 30.3577C20.1857 30.3129 20.3973 30.2382 20.5724 30.0963C20.6599 30.0291 20.6964 30.059 20.7402 30.1411C20.7985 30.2457 20.8642 30.3502 20.9372 30.4473C20.9955 30.5295 20.9882 30.5743 20.908 30.6265C20.6453 30.8058 20.3681 30.9178 20.0544 30.9701C20.0253 30.9701 19.9888 30.9551 19.9742 30.9999H19.4198H19.4343ZM19.6313 28.9761C19.8721 28.9761 20.1201 28.9761 20.3608 28.9761C20.4557 28.9761 20.4776 28.9612 20.4557 28.8566C20.3608 28.4309 20.0909 28.1994 19.6824 28.1845C19.2666 28.177 18.9164 28.4459 18.8215 28.8491C18.7997 28.9388 18.8143 28.9761 18.9164 28.9761C19.1571 28.9761 19.3906 28.9761 19.6313 28.9761Z" fill="#040404"/>
<path d="M12.679 31C12.5769 30.9253 12.4529 30.9402 12.3434 30.9029C12.1319 30.8357 11.9276 30.7535 11.7379 30.6341C11.6796 30.5967 11.6577 30.5668 11.7088 30.5071C11.7088 30.5071 11.7088 30.4996 11.716 30.4922C11.8036 30.3503 11.862 30.1561 11.986 30.0889C12.11 30.0142 12.2486 30.2009 12.3872 30.2532C12.7301 30.3727 13.073 30.4175 13.4231 30.3353C13.4742 30.3204 13.5253 30.3055 13.5763 30.283C13.7076 30.2233 13.8098 30.1337 13.8098 29.9769C13.8098 29.8126 13.6785 29.7603 13.5544 29.708C13.3137 29.6109 13.0584 29.6184 12.803 29.5736C12.6279 29.5437 12.4529 29.4914 12.2924 29.4093C11.7452 29.1255 11.6212 28.431 12.037 27.9679C12.2486 27.7364 12.5112 27.6244 12.8103 27.5871C13.321 27.5199 13.8244 27.5721 14.2985 27.8111C14.408 27.8634 14.4517 27.9157 14.3715 28.0426C14.2912 28.1696 14.2621 28.3638 14.1526 28.4384C14.0286 28.5131 13.8827 28.3563 13.7441 28.3115C13.4815 28.2368 13.2189 28.1845 12.9416 28.2219C12.8541 28.2368 12.7739 28.2592 12.7009 28.304C12.5915 28.3712 12.5258 28.4683 12.5404 28.6027C12.555 28.7297 12.6498 28.7745 12.7447 28.8118C12.9489 28.8865 13.1605 28.8865 13.3648 28.9164C13.5836 28.9463 13.7879 28.9985 13.9848 29.0956C14.6268 29.4168 14.6925 30.2606 14.1089 30.6863C13.8973 30.8432 13.6566 30.9178 13.4012 30.9552C13.3721 30.9552 13.3356 30.9402 13.321 30.9851H12.6717L12.679 31Z" fill="#030303"/>
<path d="M16.4506 31C16.4506 31 16.4141 30.9701 16.385 30.9626C15.9254 30.8208 15.6919 30.537 15.67 30.0366C15.6481 29.5138 15.6554 28.9836 15.6554 28.4608C15.6554 28.3339 15.6263 28.2816 15.4949 28.2965C15.3709 28.3115 15.2469 28.2965 15.1229 28.2965C15.0354 28.2965 15.0135 28.2667 15.0135 28.1845C15.0135 28.0426 15.0135 27.8933 15.0135 27.7514C15.0135 27.6692 15.0281 27.6319 15.1156 27.6394C15.2469 27.6468 15.3855 27.6394 15.5241 27.6394C15.6336 27.6468 15.6554 27.602 15.6554 27.4975C15.6554 27.251 15.6554 26.9971 15.6554 26.7507C15.6554 26.6685 15.6773 26.6312 15.7649 26.6386C15.9254 26.6386 16.0932 26.6386 16.2536 26.6386C16.3412 26.6386 16.3631 26.661 16.3631 26.7507C16.3631 26.9971 16.3631 27.2361 16.3631 27.4825C16.3631 27.6169 16.4068 27.6468 16.5236 27.6394C16.8081 27.6319 17.0999 27.6394 17.3844 27.6394C17.4719 27.6394 17.5084 27.6543 17.5011 27.7588C17.4938 27.9007 17.5011 28.0501 17.5011 28.192C17.5011 28.2816 17.4719 28.304 17.3917 28.304C17.0999 28.304 16.8081 28.304 16.5163 28.304C16.3995 28.304 16.3558 28.3189 16.3631 28.4534C16.3704 28.8716 16.3631 29.2973 16.3631 29.7155C16.3631 30.2233 16.5892 30.41 17.078 30.298C17.1364 30.2831 17.1947 30.2681 17.2458 30.2457C17.4428 30.171 17.4428 30.171 17.5084 30.3801C17.5303 30.4399 17.5522 30.5071 17.5668 30.5668C17.6397 30.7834 17.6397 30.7909 17.4282 30.8656C17.2823 30.9178 17.1291 30.9626 16.9759 31.0075H16.4579L16.4506 31Z" fill="#020202"/>
<path d="M25.5477 30.9999C25.482 30.9401 25.3872 30.9476 25.307 30.9252C24.5774 30.7012 24.1324 30.029 24.1616 29.2374C24.1981 28.162 24.9933 27.4526 26.1678 27.5944C26.4377 27.6243 26.693 27.7214 26.9192 27.8782C26.9848 27.923 27.0213 27.9604 26.963 28.0425C26.8827 28.162 26.8098 28.2964 26.7441 28.4309C26.693 28.528 26.6566 28.5205 26.5763 28.4607C26.248 28.2442 25.8979 28.1546 25.5112 28.289C24.9787 28.4831 24.7306 29.103 24.9349 29.7079C25.11 30.2307 25.6571 30.4697 26.2334 30.283C26.3648 30.2381 26.4961 30.1784 26.6055 30.0888C26.6639 30.044 26.693 30.0514 26.7295 30.1112C26.8025 30.2531 26.8827 30.3875 26.9703 30.5219C27.014 30.5966 27.0067 30.634 26.9411 30.6788C26.7295 30.8281 26.4961 30.9327 26.2407 30.9625C26.2116 30.9625 26.1824 30.9625 26.1751 30.9924H25.555L25.5477 30.9999Z" fill="#030303"/>
<path d="M19.478 22.0534C18.8944 22.5463 18.2524 22.957 17.574 23.3155C15.6553 24.3312 13.6054 24.7792 11.446 24.6747C6.09137 24.4208 1.48082 20.4627 0.299004 15.1081C-0.970357 9.35766 1.83829 3.55496 7.08352 1.10543C8.99485 0.20926 11.001 -0.134271 13.0947 0.0449628C15.4803 0.254069 17.6105 1.1353 19.5072 2.63639C19.5072 2.64385 19.5072 2.65132 19.5072 2.66626C18.7485 3.25624 18.0846 3.95824 17.501 4.72745C16.7277 5.72817 16.1295 6.83345 15.6918 8.02834C15.2541 9.2307 15.0061 10.4629 14.9404 11.74C14.8966 12.6959 14.955 13.6518 15.1301 14.5928C15.3417 15.7503 15.6991 16.8481 16.2098 17.9011C16.5818 18.6629 17.0268 19.3798 17.5521 20.0519C17.946 20.5598 18.3692 21.0377 18.8506 21.4634C19.0695 21.6576 19.281 21.8592 19.4999 22.0609L19.478 22.0534Z" fill="#EA001B"/>
<path d="M19.4781 22.0533C19.2593 21.8517 19.0477 21.65 18.8288 21.4559C18.3474 21.0302 17.9242 20.5522 17.5303 20.0444C17.0051 19.3797 16.56 18.6628 16.188 17.8936C15.6773 16.848 15.3199 15.7428 15.1083 14.5852C14.9405 13.6442 14.8749 12.6883 14.9186 11.7324C14.9843 10.4554 15.2323 9.21567 15.67 8.02077C16.1077 6.82588 16.7132 5.72807 17.4792 4.71988C18.0701 3.95067 18.7267 3.24867 19.4854 2.65869C19.697 2.75578 19.8502 2.93501 20.0107 3.08437C20.835 3.83118 21.5426 4.67507 22.1336 5.61605C22.9944 6.98271 23.578 8.46886 23.8771 10.067C24.0595 11.0528 24.1105 12.0535 24.0595 13.0543C23.9792 14.5404 23.651 15.9668 23.06 17.326C22.5713 18.4462 21.9439 19.4768 21.1633 20.4029C20.6964 20.963 20.1785 21.4783 19.6167 21.9338C19.5802 21.9637 19.5511 22.0085 19.5219 22.0458C19.5073 22.0458 19.4854 22.0458 19.4708 22.0458L19.4781 22.0533Z" fill="#FE5A00"/>
<path d="M2.64815 28.0353C3.13692 27.393 4.21661 27.4079 4.66161 28.1323C5.07014 27.5946 5.60999 27.4677 6.23008 27.632C6.69697 27.7515 7.01066 28.1249 7.04714 28.6178C7.1055 29.3571 7.06173 30.1039 7.06902 30.8433C7.06902 30.9254 7.03255 30.9329 6.96689 30.9329C6.79181 30.9329 6.60943 30.9254 6.43434 30.9329C6.32491 30.9329 6.28844 30.9105 6.28844 30.791C6.28844 30.2682 6.28844 29.738 6.28844 29.2152C6.28844 29.1107 6.28844 29.0061 6.26655 28.9016C6.21549 28.4908 5.98204 28.2668 5.5954 28.2593C5.19416 28.2593 4.90236 28.4908 4.8367 28.8791C4.80752 29.0584 4.81481 29.2301 4.81481 29.4094C4.81481 29.8724 4.81481 30.3429 4.81481 30.8059C4.81481 30.9105 4.78563 30.9403 4.6908 30.9329C4.5376 30.9254 4.3844 30.9254 4.23849 30.9329C4.12907 30.9403 4.11448 30.8955 4.11448 30.7984C4.11448 30.2682 4.11448 29.738 4.11448 29.2003C4.11448 29.1032 4.11448 29.0136 4.09989 28.9165C4.03423 28.2668 3.53816 28.1622 3.11504 28.2966C2.82323 28.3863 2.68462 28.6178 2.65544 28.9165C2.61167 29.4318 2.64815 29.9471 2.63356 30.4624C2.63356 30.6117 2.67733 30.8059 2.60438 30.8955C2.53142 30.9851 2.32716 30.9179 2.18855 30.9254C1.93322 30.9254 1.93322 30.9254 1.93322 30.6715C1.93322 29.7081 1.93322 28.7447 1.93322 27.7813C1.93322 27.6619 1.9624 27.632 2.07183 27.6394C2.21773 27.6469 2.36364 27.6469 2.50954 27.6394C2.61167 27.6394 2.64085 27.6693 2.63356 27.7664C2.62626 27.8411 2.63356 27.9158 2.63356 28.0353H2.64815Z" fill="#020202"/>
<path d="M22.6223 27.9904C22.936 27.5498 23.381 27.5423 23.8333 27.5797C23.9136 27.5797 23.9355 27.617 23.9063 27.6992C23.8552 27.856 23.8042 28.0128 23.7677 28.1771C23.7458 28.2742 23.702 28.2892 23.6218 28.2667C23.5051 28.2369 23.3883 28.2145 23.2716 28.2219C22.8777 28.2369 22.6369 28.5207 22.6296 29.0061C22.6223 29.5961 22.6296 30.1786 22.6296 30.7686C22.6296 30.903 22.6004 30.9553 22.4618 30.9403C22.3305 30.9254 22.1919 30.9254 22.0533 30.9403C21.9366 30.9478 21.9147 30.903 21.9147 30.791C21.9147 29.7902 21.9147 28.782 21.9147 27.7813C21.9147 27.6768 21.9366 27.632 22.046 27.6394C22.1992 27.6469 22.3524 27.6469 22.4983 27.6394C22.6004 27.6394 22.6296 27.6693 22.6223 27.7664C22.615 27.8411 22.6223 27.9157 22.6223 27.9979V27.9904Z" fill="#050505"/>
<path d="M32.303 27.9903C32.624 27.5572 33.0617 27.5347 33.514 27.587C33.587 27.5945 33.6162 27.6169 33.5797 27.7065C33.5213 27.8633 33.4776 28.0202 33.4411 28.1845C33.4192 28.2816 33.3681 28.289 33.2879 28.2666C33.1639 28.2367 33.0471 28.2143 32.9158 28.2218C32.5365 28.2517 32.3103 28.5205 32.303 28.9761C32.2957 29.5735 32.2957 30.171 32.303 30.7684C32.303 30.9103 32.2666 30.9477 32.1352 30.9327C31.9602 30.9103 31.7267 31.0074 31.6246 30.8954C31.537 30.7983 31.5954 30.5593 31.5954 30.3801C31.5954 29.5138 31.5954 28.655 31.5954 27.7887C31.5954 27.6692 31.6173 27.6244 31.7486 27.6318C31.8945 27.6468 32.0404 27.6393 32.1863 27.6318C32.2884 27.6318 32.3249 27.6542 32.3103 27.7588C32.303 27.8335 32.3103 27.9082 32.3103 27.9903H32.303Z" fill="#040404"/>
</g>
<defs>
<clipPath id="clip0_219_413">
<rect width="39" height="31" fill="white"/>
</clipPath>
</defs>
</svg>
