<svg width="16" height="17" viewBox="0 0 16 17" fill="none" xmlns="http://www.w3.org/2000/svg">
<path d="M15.3712 10.283L14.2016 9.28304C14.257 8.94375 14.2855 8.59732 14.2855 8.25089C14.2855 7.90446 14.257 7.55804 14.2016 7.21875L15.3712 6.21875C15.4595 6.14323 15.5226 6.04264 15.5523 5.93035C15.5819 5.81807 15.5767 5.69942 15.5373 5.59018L15.5212 5.54375C15.1992 4.6438 14.7171 3.80953 14.098 3.08125L14.0659 3.04375C13.9908 2.95545 13.8907 2.89198 13.7788 2.86169C13.6669 2.83141 13.5485 2.83574 13.4391 2.87411L11.9873 3.39018C11.4516 2.95089 10.8534 2.60446 10.207 2.36161L9.92659 0.84375C9.90544 0.72954 9.85004 0.624469 9.76775 0.542496C9.68546 0.460524 9.58017 0.40553 9.46588 0.384821L9.41767 0.375893C8.48731 0.208036 7.50874 0.208036 6.57838 0.375893L6.53017 0.384821C6.41587 0.40553 6.31059 0.460524 6.2283 0.542496C6.14601 0.624469 6.0906 0.72954 6.06945 0.84375L5.78731 2.36875C5.14604 2.61166 4.54886 2.9579 4.01945 3.39375L2.55695 2.87411C2.4476 2.83543 2.32908 2.83095 2.21712 2.86125C2.10516 2.89155 2.00508 2.9552 1.93017 3.04375L1.89802 3.08125C1.27971 3.81004 0.797623 4.64417 0.474808 5.54375L0.458737 5.59018C0.37838 5.81339 0.444451 6.06339 0.624808 6.21875L1.80874 7.22946C1.75338 7.56518 1.72659 7.90804 1.72659 8.24911C1.72659 8.59196 1.75338 8.93482 1.80874 9.26875L0.624808 10.2795C0.536586 10.355 0.473445 10.4556 0.44378 10.5679C0.414115 10.6801 0.419331 10.7988 0.458737 10.908L0.474808 10.9545C0.798023 11.8545 1.27659 12.6848 1.89802 13.417L1.93017 13.4545C2.00526 13.5428 2.10535 13.6062 2.21724 13.6365C2.32913 13.6668 2.44757 13.6625 2.55695 13.6241L4.01945 13.1045C4.55159 13.542 5.14624 13.8884 5.78731 14.1295L6.06945 15.6545C6.0906 15.7687 6.14601 15.8737 6.2283 15.9557C6.31059 16.0377 6.41587 16.0927 6.53017 16.1134L6.57838 16.1223C7.51729 16.2911 8.47876 16.2911 9.41767 16.1223L9.46588 16.1134C9.58017 16.0927 9.68546 16.0377 9.76775 15.9557C9.85004 15.8737 9.90544 15.7687 9.92659 15.6545L10.207 14.1366C10.8531 13.8944 11.4547 13.5468 11.9873 13.108L13.4391 13.6241C13.5484 13.6628 13.667 13.6673 13.7789 13.637C13.8909 13.6067 13.991 13.543 14.0659 13.4545L14.098 13.417C14.7195 12.683 15.198 11.8545 15.5212 10.9545L15.5373 10.908C15.6177 10.6884 15.5516 10.4384 15.3712 10.283ZM12.9337 7.42946C12.9784 7.69911 13.0016 7.97589 13.0016 8.25268C13.0016 8.52946 12.9784 8.80625 12.9337 9.07589L12.8159 9.79197L14.1498 10.933C13.9476 11.3989 13.6923 11.8399 13.3891 12.2473L11.732 11.6598L11.1712 12.1205C10.7445 12.4705 10.2695 12.7455 9.75517 12.9384L9.07481 13.1938L8.75517 14.9259C8.25083 14.983 7.74165 14.983 7.23731 14.9259L6.91767 13.1902L6.24267 12.9313C5.73374 12.7384 5.26052 12.4634 4.83731 12.1152L4.27659 11.6527L2.60874 12.2455C2.30517 11.8366 2.05159 11.3955 1.84802 10.9313L3.19624 9.77946L3.08017 9.06518C3.03731 8.79911 3.01409 8.52411 3.01409 8.25268C3.01409 7.97946 3.03552 7.70625 3.08017 7.44018L3.19624 6.72589L1.84802 5.57411C2.04981 5.10804 2.30517 4.66875 2.60874 4.25982L4.27659 4.85268L4.83731 4.39018C5.26052 4.04196 5.73374 3.76696 6.24267 3.57411L6.91945 3.31875L7.23909 1.58304C7.74088 1.52589 8.25338 1.52589 8.75695 1.58304L9.07659 3.31518L9.75695 3.57054C10.2695 3.76339 10.7462 4.03839 11.173 4.38839L11.7337 4.84911L13.3909 4.26161C13.6945 4.67054 13.948 5.11161 14.1516 5.57589L12.8177 6.71696L12.9337 7.42946ZM7.99981 4.93125C6.26409 4.93125 4.85695 6.33839 4.85695 8.07411C4.85695 9.80982 6.26409 11.217 7.99981 11.217C9.73552 11.217 11.1427 9.80982 11.1427 8.07411C11.1427 6.33839 9.73552 4.93125 7.99981 4.93125ZM9.41409 9.48839C9.2286 9.67442 9.00815 9.82194 8.76543 9.92246C8.52271 10.023 8.26252 10.0745 7.99981 10.0741C7.46588 10.0741 6.96409 9.86518 6.58552 9.48839C6.39949 9.3029 6.25198 9.08245 6.15146 8.83973C6.05094 8.59701 5.9994 8.33682 5.99981 8.07411C5.99981 7.54018 6.20874 7.03839 6.58552 6.65982C6.96409 6.28125 7.46588 6.07411 7.99981 6.07411C8.53374 6.07411 9.03552 6.28125 9.41409 6.65982C9.60012 6.84532 9.74764 7.06577 9.84816 7.30848C9.94868 7.5512 10.0002 7.8114 9.99981 8.07411C9.99981 8.60804 9.79088 9.10982 9.41409 9.48839Z" fill="#D9D9D9"/>
</svg>
