<svg width="48" height="48" viewBox="0 0 48 48" fill="none" xmlns="http://www.w3.org/2000/svg">
<path d="M24 48C37.2552 48 48 37.2552 48 24C48 10.7448 37.2552 0 24 0C10.7448 0 0 10.7448 0 24C0 37.2552 10.7448 48 24 48ZM34.5936 19.5917L22.5936 31.5917C21.7089 32.4764 20.2873 32.4764 19.4178 31.5917L13.4216 25.5955C12.5369 24.7108 12.5369 23.2892 13.4216 22.4197C14.3062 21.5501 15.7278 21.535 16.5974 22.4197L21.0057 26.828L31.4102 16.4159C32.2949 15.5312 33.7164 15.5312 34.586 16.4159C35.4556 17.3006 35.4707 18.7221 34.586 19.5917H34.5936Z" fill="#00B3E6"/>
</svg>
