<svg width="57" height="18" viewBox="0 0 57 18" fill="none" xmlns="http://www.w3.org/2000/svg">
<g clip-path="url(#clip0_219_406)">
<path d="M24.7 17.7464H20.0836L22.9707 0.318604H27.5871L24.7 17.7464Z" fill="#00579F"/>
<path d="M41.4363 0.738833C40.5234 0.383903 39.0836 0 37.2949 0C32.7379 0 29.5242 2.37586 29.502 5.7658C29.4648 8.27203 31.8027 9.66278 33.5469 10.4958C35.3355 11.3505 35.9441 11.9082 35.9441 12.6688C35.9293 13.835 34.5043 14.371 33.1684 14.371C31.3277 14.371 30.3406 14.0958 28.834 13.4439L28.2254 13.1686L27.5797 17.0801C28.6633 17.5581 30.6598 17.9855 32.7305 18.0072C37.577 18.0072 40.7312 15.6676 40.7684 12.0531C40.7832 10.0684 39.5512 8.54728 36.8941 7.30865C35.2762 6.51187 34.2891 5.97586 34.2891 5.15734C34.3113 4.41851 35.1277 3.65795 36.9461 3.65795C38.4453 3.62173 39.5512 3.96942 40.3824 4.32435L40.798 4.51268L41.4289 0.746076L41.4363 0.738833Z" fill="#00579F"/>
<path d="M47.5742 11.5677C47.9527 10.5681 49.4148 6.69285 49.4148 6.69285C49.3926 6.72907 49.7934 5.67152 50.0234 5.02685L50.3426 6.52625C50.3426 6.52625 51.2184 10.6985 51.4039 11.5677H47.5668H47.5742ZM53.2742 0.318604H49.7043C48.6059 0.318604 47.7672 0.630072 47.2922 1.7673L40.4344 17.7464H45.2809C45.2809 17.7464 46.075 15.5951 46.2531 15.1315H52.1832C52.3168 15.7399 52.7324 17.7464 52.7324 17.7464H57.0074L53.2742 0.318604Z" fill="#00579F"/>
<path d="M16.2242 0.318604L11.7043 12.2051L11.207 9.79305C10.3684 7.01156 7.74844 3.99104 4.82422 2.4844L8.96562 17.7246H13.8492L21.1078 0.318604H16.2242Z" fill="#00579F"/>
<path d="M7.50351 0.318604H0.0742187L0 0.673533C5.79648 2.12223 9.63359 5.60633 11.207 9.79305L9.59648 1.78178C9.3293 0.66629 8.51289 0.354821 7.50351 0.318604Z" fill="#FAA61A"/>
</g>
<defs>
<clipPath id="clip0_219_406">
<rect width="57" height="18" fill="white"/>
</clipPath>
</defs>
</svg>
