<svg width="67" height="53" viewBox="0 0 67 53" fill="none" xmlns="http://www.w3.org/2000/svg">
<g clip-path="url(#clip0_48_121)">
<path d="M33.3498 53C23.6766 53 14.0104 53 4.33722 53C1.21526 53 0 51.7668 0 48.6246C0 33.847 0 19.0694 0 4.29184C0 1.26108 1.26415 0 4.28135 0C23.7185 0 43.1557 0 62.5929 0C65.8476 0 67 1.16353 67 4.43815C67 19.2157 67 34.0003 67 48.7778C67 51.718 65.7289 52.993 62.7955 52.993C52.9826 52.993 43.1627 52.993 33.3498 52.993V53ZM19.6397 11.5726H18.7737C17.6213 11.5726 16.4619 11.5726 15.3095 11.5726C14.8276 11.5726 14.3457 11.5726 13.8638 11.5726C12.418 11.5726 10.9793 11.5726 9.53351 11.5726C9.0516 11.5726 8.56969 11.5726 8.08777 11.5726C6.46044 11.5587 4.83311 11.5726 3.20578 11.5169C2.52132 11.496 2.28385 11.7329 2.30481 12.4157C2.3537 14.039 2.34671 15.6624 2.36068 17.2858C2.36068 17.7665 2.36068 18.2473 2.36068 18.728C2.36068 20.1702 2.36068 21.6055 2.36068 23.0477C2.36068 23.5285 2.36068 24.0092 2.36068 24.4899C2.36068 25.9322 2.36068 27.3674 2.36068 28.8096C2.36068 29.2904 2.36068 29.7711 2.36068 30.2519C2.36068 31.6941 2.36068 33.1294 2.36068 34.5716C2.36068 35.0523 2.36068 35.5331 2.36068 36.0138C2.36068 37.456 2.36068 38.8913 2.36068 40.3335C2.36068 40.8142 2.36068 41.295 2.36068 41.7757C2.36068 43.218 2.36068 44.6532 2.36068 46.0954C2.36068 46.5762 2.36068 47.0569 2.36068 47.5377C2.34671 47.9627 2.31179 48.3807 2.31179 48.8057C2.31179 50.4918 2.56322 50.7147 4.33024 50.652C4.81215 50.652 5.29407 50.652 5.77598 50.652C11.4891 50.666 17.1952 50.6938 22.9084 50.6938C34.0413 50.6938 45.1742 50.666 56.3141 50.6451C56.796 50.6451 57.2779 50.6451 57.7598 50.6451C59.5757 50.659 61.3916 50.666 63.2076 50.6869C64.2203 50.7008 64.7022 50.2201 64.6882 49.2098C64.6673 47.3983 64.6603 45.5868 64.6463 43.7753C64.6463 43.2946 64.6463 42.8139 64.6463 42.3331C64.6463 40.8909 64.6463 39.4556 64.6463 38.0134C64.6463 37.5327 64.6463 37.0519 64.6463 36.5712C64.6463 35.129 64.6463 33.6937 64.6463 32.2515C64.6463 31.7707 64.6463 31.29 64.6463 30.8093C64.6463 29.367 64.6463 27.9318 64.6463 26.4895C64.6463 26.0088 64.6463 25.5281 64.6463 25.0473C64.6463 23.6051 64.6463 22.1698 64.6463 20.7276C64.6463 20.2469 64.6463 19.7661 64.6463 19.2854C64.6463 17.8432 64.6463 16.4079 64.6463 14.9657C64.6463 14.4849 64.6463 14.0042 64.6463 13.5235C64.6463 12.6665 64.6463 11.8026 64.6463 10.9456C64.6603 8.78572 64.6882 6.63284 64.6882 4.47299C64.6882 2.43854 64.5346 2.29223 62.4463 2.29223C45.9494 2.29223 29.4526 2.29223 12.9558 2.29223C9.97352 2.29223 6.99124 2.30617 4.00897 2.2783C2.98926 2.27133 2.31179 2.56395 2.31179 3.71355C2.31179 5.62955 2.33274 7.55252 2.29782 9.46852C2.28385 10.1722 2.56322 10.3743 3.22673 10.3603C5.00771 10.3255 6.7887 10.3534 8.5627 10.3534C25.73 10.3534 42.9043 10.3534 60.0716 10.3603C60.7002 10.3603 61.4685 10.0956 61.8386 10.9386C61.7269 11.1267 61.6151 11.3079 61.5034 11.496C61.0215 11.5169 60.5396 11.5308 60.0576 11.5517C58.6119 11.5517 57.1731 11.5517 55.7274 11.5517C55.2455 11.5517 54.7636 11.5517 54.2817 11.5517C52.8359 11.5517 51.3972 11.5517 49.9514 11.5517C49.4695 11.5517 48.9876 11.5517 48.5057 11.5517C47.0599 11.5517 45.6212 11.5517 44.1754 11.5517C43.6935 11.5517 43.2116 11.5517 42.7297 11.5517C41.284 11.5517 39.8452 11.5517 38.3995 11.5517C37.9175 11.5517 37.4356 11.5517 36.9537 11.5517C35.508 11.5517 34.0692 11.5517 32.6235 11.5517C32.1416 11.5517 31.6596 11.5517 31.1777 11.5517C29.732 11.5517 28.2932 11.5517 26.8475 11.5517C26.3656 11.5517 25.8837 11.5517 25.4018 11.5517C23.956 11.5517 22.5173 11.5517 21.0715 11.5517C20.5896 11.5517 20.1077 11.5517 19.6258 11.5517L19.6397 11.5726Z" fill="#4A7CA6"/>
<path d="M61.8456 10.9597C61.4755 10.1167 60.7142 10.3815 60.0786 10.3815C42.9113 10.3675 25.737 10.3745 8.56971 10.3745C6.78873 10.3745 5.00774 10.3536 3.23374 10.3815C2.56325 10.3954 2.29086 10.1864 2.30483 9.48966C2.33975 7.57366 2.3188 5.65069 2.3188 3.73469C2.3188 2.5851 3.00326 2.29247 4.01597 2.29944C6.99825 2.32034 9.98053 2.31337 12.9628 2.31337C29.4596 2.31337 45.9565 2.31337 62.4533 2.31337C64.5485 2.31337 64.7022 2.45968 64.6952 4.49413C64.6952 6.65398 64.6673 8.80686 64.6533 10.9667C63.7174 10.9667 62.7815 10.9667 61.8526 10.9667L61.8456 10.9597ZM17.8518 5.49045C17.0067 5.51135 16.5667 6.01299 16.5527 6.75152C16.5388 7.44825 17.0346 7.94292 17.7331 7.96383C18.5083 7.98473 19.0042 7.47612 19.0112 6.70972C19.0182 5.99209 18.5362 5.60192 17.8518 5.49741V5.49045ZM9.21925 6.62611C9.08655 5.92938 8.68146 5.49741 7.96208 5.50438C7.15191 5.51831 6.73285 6.06176 6.7538 6.80726C6.77476 7.50399 7.27064 7.97776 7.97605 7.94989C8.73733 7.91505 9.1494 7.39948 9.21226 6.61914L9.21925 6.62611ZM14.1362 6.70972C14.0454 6.01299 13.6682 5.55315 12.9488 5.50438C12.1177 5.45561 11.6777 5.99906 11.6568 6.73062C11.6288 7.42735 12.1107 7.92899 12.8161 7.95686C13.5984 7.98473 14.0174 7.46915 14.1432 6.70275L14.1362 6.70972Z" fill="#D6E1E8"/>
<path d="M17.8518 5.49037C18.5362 5.60184 19.0182 5.99201 19.0112 6.70267C18.9972 7.47604 18.5083 7.97768 17.7331 7.95678C17.0346 7.93588 16.5387 7.44817 16.5527 6.74447C16.5667 6.00594 17.0067 5.5043 17.8518 5.4834V5.49037Z" fill="#5685AB"/>
<path d="M9.21923 6.63266C9.15637 7.413 8.7443 7.92857 7.98302 7.96341C7.27761 7.99128 6.78172 7.51751 6.76077 6.82078C6.73283 6.07528 7.15189 5.52487 7.96905 5.5179C8.68843 5.50397 9.09351 5.9429 9.22621 6.63963L9.21923 6.63266Z" fill="#5282A9"/>
<path d="M14.1292 6.71646C14.0034 7.48286 13.5844 7.99844 12.8021 7.97057C12.0967 7.9427 11.6218 7.44106 11.6428 6.74433C11.6707 6.0058 12.1107 5.46235 12.9348 5.51809C13.6542 5.55989 14.0384 6.01973 14.1222 6.72343L14.1292 6.71646Z" fill="#5685AB"/>
<path d="M33.7899 15.5231C34.0692 15.746 34.3416 15.976 34.621 16.1989C34.6489 17.3276 34.6769 18.4563 34.7048 19.585C34.7048 20.0657 34.7048 20.5465 34.7048 21.0272C34.7048 21.501 34.6978 21.9748 34.6908 22.4416C34.6908 23.6051 34.6838 24.7617 34.6769 25.9252C34.6699 29.2207 34.6978 32.5232 34.628 35.8187C34.6 37.0798 35.068 37.038 35.962 36.5991C38.8534 35.1777 39.8801 31.5478 38.169 28.7609C37.8547 28.2453 37.3169 27.8064 37.6521 27.0887C39.2446 27.2699 39.5239 28.6215 39.8243 29.7711C40.1106 30.872 40.6065 31.1925 41.71 31.1298C43.3862 31.0322 45.0764 31.0671 46.7596 31.1298C47.3463 31.1507 48.38 30.7326 48.38 31.722C48.38 32.572 47.4022 32.2376 46.8364 32.2515C45.0555 32.2933 43.2745 32.3281 41.5005 32.2445C40.5646 32.2027 40.1385 32.4884 39.9081 33.4011C39.3214 35.7142 37.8198 37.254 35.5639 37.9855C34.8934 38.2015 34.607 38.5151 34.6629 39.2048C34.7048 39.7761 34.6978 40.3544 34.7048 40.9257C34.8654 41.5598 34.0413 42.6536 35.5848 42.6397C39.4192 42.5979 43.2535 42.5979 47.0879 42.5839C47.5698 42.5839 48.0517 42.5839 48.5336 42.5839C50.5451 42.5979 52.5635 42.5909 54.575 42.6397C55.2595 42.6536 55.4899 42.4237 55.476 41.7409C55.4271 39.7343 55.4341 37.7278 55.4201 35.7142C55.4201 35.2335 55.4201 34.7527 55.4201 34.272C55.4341 30.2101 55.3992 26.1482 55.5039 22.0862C55.5318 20.8809 55.1058 20.6998 54.0442 20.7137C49.1552 20.7625 44.2662 20.7276 39.3773 20.7485C38.155 20.7485 37.3867 20.4211 37.6521 19.0067C37.8198 18.8465 37.9804 18.6862 38.148 18.526C39.5938 18.4772 41.0325 18.4354 42.4783 18.3866C42.9602 18.3866 43.4421 18.3866 43.924 18.3866C45.3698 18.3866 46.8085 18.3866 48.2542 18.3866C48.7362 18.3866 49.2181 18.3866 49.7 18.3866C51.1457 18.3866 52.5845 18.3866 54.0302 18.3866C54.5121 18.3866 54.9941 18.3866 55.476 18.3866C56.4119 18.4911 57.5503 18.2055 57.8297 19.585C57.8297 20.0657 57.8297 20.5465 57.8367 21.0272C57.8367 22.4694 57.8367 23.9047 57.8367 25.3469C57.8367 25.8277 57.8367 26.3084 57.8367 26.7892C57.8367 28.2314 57.8367 29.6666 57.8367 31.1089C57.8367 31.5896 57.8367 32.0703 57.8367 32.5511C57.8367 33.9933 57.8367 35.4286 57.8367 36.8708C57.8367 37.3515 57.8367 37.8323 57.8367 38.313C57.8367 39.7552 57.8367 41.1905 57.8367 42.6327C57.8367 43.1135 57.8227 43.5942 57.8227 44.0749C57.4106 44.8971 56.6842 44.9528 55.8671 44.9528C49.4276 44.9319 42.9881 44.9807 36.5486 44.904C35.1169 44.8901 34.3765 45.1618 34.6838 46.7225C34.7118 46.8618 34.6838 47.0082 34.6838 47.1545C34.6349 47.8791 34.2718 48.3598 33.5314 48.3598C32.7911 48.3598 32.4559 47.8582 32.379 47.1405C32.3092 46.4438 32.7282 45.4405 32.1625 45.1131C31.5409 44.7577 30.5911 44.9389 29.7809 44.9389C24.2074 44.9319 18.634 44.9389 13.0606 44.925C12.3901 44.925 11.7196 44.8344 11.0561 44.7856C10.7558 44.6393 10.4485 44.4999 10.1481 44.3606C9.64527 43.6012 8.68144 43.1344 8.68842 42.0544C8.67446 41.5737 8.66747 41.093 8.6535 40.6122C8.6535 39.17 8.6535 37.7347 8.6535 36.2925C8.6535 35.8118 8.6535 35.331 8.6535 34.8503C8.6535 33.4081 8.6535 31.9728 8.6535 30.5306C8.6535 30.0498 8.6535 29.5691 8.6535 29.0884C8.6535 27.6461 8.6535 26.2109 8.6535 24.7686C8.6535 24.2879 8.6535 23.8072 8.6535 23.3264C8.66747 23.0408 8.69541 22.7551 8.70239 22.4694C8.76525 19.4735 9.75702 18.4842 12.7533 18.4284C13.0396 18.4284 13.326 18.3936 13.6123 18.3797C14.0942 18.3797 14.5762 18.3797 15.0581 18.3797C16.5038 18.3797 17.9426 18.3797 19.3883 18.3797C19.8702 18.3797 20.3521 18.3797 20.8341 18.3797C22.2798 18.3797 23.7185 18.3797 25.1643 18.3797C25.6462 18.3797 26.1281 18.3797 26.61 18.3797C28.1745 18.3936 29.739 18.3588 31.2965 18.4424C32.1974 18.4911 32.4838 18.1776 32.386 17.3206C32.2673 16.2755 32.6305 15.5509 33.8248 15.5161L33.7899 15.5231ZM21.9306 42.6327C25.0106 42.6327 28.0907 42.5979 31.1638 42.6536C32.1276 42.6745 32.379 42.354 32.3651 41.4274C32.3162 38.1667 32.3162 34.906 32.3651 31.6453C32.379 30.7396 32.0787 30.5166 31.2127 30.5236C24.8151 30.5584 18.4175 30.5515 12.0199 30.5236C11.2028 30.5236 10.9443 30.7744 10.9583 31.5896C11.0002 34.704 11.0002 37.8253 10.9583 40.9466C10.9443 42.1798 11.4682 42.6676 12.6904 42.6536C15.7705 42.6188 18.8435 42.6397 21.9236 42.6397L21.9306 42.6327ZM21.6722 24.7756C24.2703 24.7756 26.8615 24.7756 29.4596 24.7756C32.4489 24.7756 32.407 24.7756 32.372 21.8145C32.3581 20.8739 32.0019 20.7067 31.1777 20.7276C29.2571 20.7764 27.3294 20.7416 25.4087 20.7416C21.1763 20.7416 16.9438 20.7555 12.7183 20.7346C11.6218 20.7346 10.9374 21.0621 10.9723 22.2744C10.9862 22.7063 11.0142 23.1453 10.9653 23.5703C10.8535 24.4969 11.1888 24.8174 12.1526 24.7965C15.3235 24.7408 18.5013 24.7756 21.6722 24.7756Z" fill="#4A7DA6"/>
<path d="M21.9306 42.6327C18.8505 42.6327 15.7775 42.6048 12.6974 42.6466C11.4751 42.6605 10.9513 42.1798 10.9653 40.9396C11.0002 37.8253 11.0002 34.7039 10.9653 31.5826C10.9583 30.7674 11.2097 30.5166 12.0269 30.5166C18.4245 30.5445 24.8221 30.5445 31.2197 30.5166C32.0927 30.5166 32.386 30.7396 32.3721 31.6383C32.3232 34.899 32.3232 38.1597 32.3721 41.4204C32.386 42.347 32.1346 42.6605 31.1708 42.6466C28.0907 42.5909 25.0176 42.6257 21.9376 42.6257L21.9306 42.6327ZM21.2391 35.1429C23.1598 35.1429 25.0805 35.1568 26.9942 35.1359C27.4831 35.1359 28.2164 35.3031 28.1885 34.5158C28.1605 33.8679 27.497 33.9933 27.0361 33.9933C23.2436 33.9863 19.4582 33.9863 15.6657 33.9933C15.2047 33.9933 14.5622 33.8818 14.5412 34.5506C14.5203 35.2334 15.1628 35.1359 15.6238 35.1429C17.4956 35.1498 19.3674 35.1429 21.2391 35.1429ZM17.6702 36.3064C16.86 36.3064 16.0429 36.3064 15.2327 36.3064C14.8695 36.3064 14.5412 36.4388 14.5203 36.8498C14.4993 37.2679 14.8276 37.4212 15.1838 37.4281C16.8111 37.4421 18.4315 37.4421 20.0588 37.4281C20.422 37.4281 20.7363 37.247 20.6944 36.8289C20.6525 36.4248 20.3172 36.3134 19.961 36.3134C19.1997 36.3134 18.4315 36.3134 17.6702 36.3134V36.3064ZM24.1795 37.4421C24.417 37.4421 24.6544 37.4421 24.8919 37.4421C25.318 37.4281 25.8697 37.4769 25.8907 36.9126C25.9116 36.2298 25.304 36.3064 24.836 36.2994C24.3611 36.2855 23.8862 36.2925 23.4112 36.2994C23.0131 36.3134 22.6081 36.39 22.615 36.8986C22.622 37.3027 22.9643 37.4212 23.3205 37.4351C23.6068 37.4421 23.8932 37.4351 24.1795 37.4351V37.4421Z" fill="#F1AEAC"/>
<path d="M34.6978 22.4485C38.2528 22.4485 41.8147 22.4833 45.3697 22.4485C46.1729 22.4485 46.571 22.6784 46.7805 23.4936C47.5488 26.5522 49.679 28.294 52.6334 28.9908C53.5902 29.2137 53.8207 29.5691 53.7299 30.3912C53.7229 30.4887 53.7229 30.5863 53.7299 30.6768C53.8905 32.7113 53.9534 34.3625 51.1387 34.9617C48.8479 35.4494 47.2904 37.4072 46.7736 39.8667C46.599 40.6888 46.1729 40.9187 45.3697 40.9118C41.8147 40.8839 38.2528 40.9118 34.6978 40.9187C34.6838 40.3404 34.6978 39.7691 34.6559 39.1978C34.6 38.5081 34.8863 38.1945 35.5568 37.9785C37.8197 37.24 39.3214 35.7072 39.901 33.3941C40.1315 32.4814 40.5576 32.1957 41.4935 32.2375C43.2675 32.3211 45.0484 32.2863 46.8294 32.2445C47.3882 32.2305 48.373 32.565 48.373 31.715C48.373 30.7256 47.3463 31.1437 46.7526 31.1228C45.0694 31.067 43.3862 31.0252 41.703 31.1228C40.6065 31.1855 40.1106 30.8719 39.8172 29.7641C39.5169 28.6215 39.2445 27.2699 37.6451 27.0817C36.6953 26.594 35.8851 25.751 34.6768 25.9182C34.6768 24.7547 34.6838 23.5981 34.6908 22.4346L34.6978 22.4485Z" fill="#B1DBC7"/>
<path d="M21.6722 24.7757C18.5013 24.7757 15.3235 24.7409 12.1526 24.7966C11.1888 24.8105 10.8536 24.497 10.9653 23.5704C11.0142 23.1454 10.9863 22.7064 10.9723 22.2745C10.9374 21.0622 11.6218 20.7277 12.7184 20.7347C16.9508 20.7556 21.1763 20.7417 25.4088 20.7417C27.3294 20.7417 29.2571 20.7695 31.1778 20.7277C31.9949 20.7068 32.3581 20.874 32.3721 21.8146C32.407 24.7687 32.4489 24.7687 29.4596 24.7757C26.8615 24.7757 24.2703 24.7757 21.6722 24.7757Z" fill="#F1AEAD"/>
<path d="M21.2461 35.1428C19.3744 35.1428 17.5026 35.1428 15.6308 35.1428C15.1698 35.1428 14.5273 35.2333 14.5482 34.5505C14.5692 33.8817 15.2117 34.0001 15.6727 33.9932C19.4651 33.9862 23.2506 33.9862 27.0431 33.9932C27.504 33.9932 28.1675 33.8678 28.1955 34.5157C28.2234 35.303 27.4901 35.1288 27.0012 35.1358C25.0805 35.1567 23.1598 35.1428 21.2461 35.1428Z" fill="#4A7CA6"/>
<path d="M17.6772 36.3065C18.4384 36.3065 19.2067 36.3065 19.968 36.3065C20.3242 36.3065 20.6664 36.4179 20.7013 36.822C20.7432 37.2401 20.429 37.4212 20.0658 37.4212C18.4384 37.4351 16.8181 37.4351 15.1908 37.4212C14.8346 37.4212 14.5063 37.2679 14.5273 36.8429C14.5482 36.4319 14.8765 36.3065 15.2397 36.2995C16.0498 36.2925 16.867 36.2995 17.6772 36.2995V36.3065Z" fill="#4A7DA6"/>
<path d="M24.1795 37.4423C23.8932 37.4423 23.6068 37.4493 23.3204 37.4423C22.9642 37.4284 22.622 37.3099 22.615 36.9058C22.6011 36.3972 23.0062 36.3206 23.4112 36.3066C23.8862 36.2927 24.3611 36.2857 24.836 36.3066C25.297 36.3206 25.9116 36.237 25.8907 36.9198C25.8697 37.4841 25.3179 37.4423 24.8919 37.4493C24.6544 37.4493 24.417 37.4493 24.1795 37.4493V37.4423Z" fill="#4A7CA6"/>
</g>
<defs>
<clipPath id="clip0_48_121">
<rect width="67" height="53" fill="white"/>
</clipPath>
</defs>
</svg>
