<svg width="19" height="19" viewBox="0 0 19 19" fill="none" xmlns="http://www.w3.org/2000/svg">
<g clip-path="url(#clip0_45_264)">
<path d="M9.49081 2.65432e-05C14.7587 0.0123203 19.0062 4.25367 19 9.50925C18.9939 14.7587 14.7218 19.0123 9.46622 18.9939C4.21678 18.9816 -0.012267 14.7157 2.67354e-05 9.44163C0.0123205 4.24752 4.2844 -0.0122672 9.49081 2.65432e-05ZM9.47851 9.51539C11.3656 9.52154 12.8839 8.0217 12.8962 6.1469C12.9023 4.27825 11.3779 2.74768 9.50925 2.73539C7.67133 2.72924 6.12232 4.25981 6.11617 6.09773C6.11002 7.98482 7.60372 9.50925 9.48466 9.51539M9.51539 16.2708C11.0767 16.2462 12.4843 15.7791 13.7137 14.8079C14.6357 14.0825 14.6419 13.0621 13.7506 12.3368C12.8777 11.6299 11.8819 11.1873 10.7755 10.9845C10.1116 10.8616 9.85962 11.132 10.0748 11.7836C10.2653 12.343 10.4989 12.89 10.714 13.4371C10.8062 13.6768 10.8247 13.9104 10.6403 14.1133C9.82274 14.9923 9.47851 15.3426 8.47042 14.2423C8.45813 14.23 8.45198 14.2239 8.43969 14.2116C8.21226 13.9903 8.16923 13.7383 8.28602 13.4371C8.50731 12.8593 8.72245 12.2753 8.93144 11.6914C9.11585 11.1751 8.86382 10.8677 8.33519 10.9661C7.15499 11.175 6.09773 11.6484 5.18185 12.4229C4.41349 13.0744 4.40734 14.0395 5.18185 14.6849C6.43581 15.7299 7.88647 16.2339 9.50925 16.2708" fill="#051C2C"/>
<path d="M9.47227 9.51538C7.59747 9.50923 6.09763 7.9848 6.10378 6.09771C6.10993 4.2598 7.65894 2.72922 9.49685 2.73537C11.3655 2.74152 12.8961 4.27824 12.8838 6.14689C12.8776 8.02169 11.3532 9.52767 9.46612 9.51538" fill="white"/>
<path d="M9.50925 16.2707C7.88647 16.24 6.43581 15.7298 5.18185 14.6848C4.40734 14.0394 4.41349 13.0744 5.18185 12.4228C6.09773 11.6483 7.155 11.175 8.3352 10.966C8.86383 10.8738 9.1097 11.1811 8.93144 11.6913C8.72245 12.2753 8.50731 12.8592 8.28602 13.437C8.16923 13.7382 8.21226 13.9902 8.43969 14.2115C8.45199 14.2238 8.45813 14.23 8.47043 14.2423C9.47852 15.3426 9.82274 14.9922 10.6403 14.1132C10.8247 13.9165 10.8124 13.6768 10.714 13.437C10.4989 12.8838 10.2653 12.3429 10.0748 11.7835C9.85347 11.1319 10.1055 10.8615 10.7755 10.9844C11.8819 11.1873 12.8716 11.6298 13.7506 12.3367C14.648 13.0621 14.6357 14.0763 13.7137 14.8078C12.4843 15.779 11.0706 16.24 9.5154 16.2707" fill="white"/>
</g>
<defs>
<clipPath id="clip0_45_264">
<rect width="19" height="19" fill="white"/>
</clipPath>
</defs>
</svg>
