<svg width="15" height="15" viewBox="0 0 15 15" fill="none" xmlns="http://www.w3.org/2000/svg">
<g clip-path="url(#clip0_45_268)">
<path d="M7.50311 15.0062C11.647 15.0062 15.0062 11.647 15.0062 7.50311C15.0062 3.35926 11.647 0 7.50311 0C3.35926 0 0 3.35926 0 7.50311C0 11.647 3.35926 15.0062 7.50311 15.0062Z" fill="#00B3E6"/>
<path d="M5.32556 10.5329C5.38155 10.4396 5.45621 10.2467 5.58686 10.116C6.38321 9.30725 7.192 8.50467 8.0008 7.71455C8.175 7.54657 8.175 7.45324 8.0008 7.28526C7.19822 6.50758 6.4081 5.71745 5.61175 4.92732C5.55575 4.87133 5.49976 4.81533 5.45621 4.75312C5.26956 4.49182 5.29445 4.12475 5.51842 3.92566C5.74862 3.72035 6.13435 3.72035 6.37077 3.95055C6.69428 4.26162 7.01158 4.58514 7.32888 4.90866C8.01946 5.59924 8.71627 6.29605 9.40685 6.98663C9.75525 7.33504 9.74903 7.67722 9.40685 8.02562C8.41764 9.01484 7.43464 9.99783 6.44542 10.987C6.23389 11.1986 5.99748 11.3106 5.69885 11.1861C5.45621 11.0866 5.34422 10.8937 5.31934 10.5391" fill="white"/>
</g>
<defs>
<clipPath id="clip0_45_268">
<rect width="15" height="15" fill="white"/>
</clipPath>
</defs>
</svg>
