<svg width="118" height="114" viewBox="0 0 118 114" fill="none" xmlns="http://www.w3.org/2000/svg">
<g clip-path="url(#clip0_45_179)">
<path d="M101.029 113.61C101.029 113.61 99.9972 92.3242 97.6455 81.8695C96.2251 75.5429 94.2888 69.1558 90.4095 63.9654C89.3844 62.5872 88.1784 61.2761 86.6307 60.55C85.3376 59.9449 83.8904 59.7836 82.47 59.6625C75.0197 59.0305 67.442 59.2524 59.9782 59.4003C47.9317 59.6424 35.8985 60.7719 24.0194 62.7821C18.0297 63.7974 12.06 65.0344 6.27791 66.9035C4.34161 67.5288 2.30482 68.3154 1.15242 69.9895C0.174228 71.435 0.0134282 73.2705 2.82502e-05 75.0185C-0.0468716 80.5518 1.01842 86.0313 2.16412 91.4435C3.77212 99.0206 7.3633 113.523 7.3633 113.523L101.029 113.617V113.61Z" fill="#FFF48F"/>
<g style="mix-blend-mode:multiply" opacity="0.28">
<path d="M12.9444 112.837C12.9444 112.521 12.8104 112.071 12.7099 111.439C12.4821 110.047 12.2476 108.655 12.0198 107.257C11.0885 101.589 10.1505 95.9279 9.2192 90.2602C8.4018 85.2849 7.5777 80.3097 6.41861 75.4017C6.07021 73.936 5.68831 72.4502 4.94461 71.1392C4.59621 70.5273 4.16071 69.9424 3.55772 69.5861C2.68672 69.0751 1.74202 69.1692 1.17252 69.9962C0.174228 71.435 0.0134282 73.2704 2.82502e-05 75.0185C-0.0468716 80.5518 1.01842 86.0312 2.16412 91.4435C3.77212 99.0206 7.3633 113.523 7.3633 113.523C8.8239 113.523 10.3113 113.61 11.7652 113.523C12.6898 113.469 12.9377 113.281 12.9377 112.837H12.9444Z" fill="#C97967"/>
</g>
<path d="M79.1201 102.254L93.6055 99.834L92.7546 113.765C87.2874 113.758 81.2641 113.751 79.1201 113.738V102.261V102.254Z" fill="#C97967"/>
<path d="M8.93799 113.563C12.4287 102.389 14.5928 95.148 18.0433 83.9672C18.9545 81.0224 20.0131 77.8624 22.5188 76.074C23.5104 75.3681 24.6561 74.9311 25.7951 74.5142C30.8536 72.6384 35.959 70.8769 41.1046 69.2432C44.4881 68.1675 47.7443 67.0312 51.3421 66.9035C55.0874 66.7757 58.8193 67.3405 62.5043 67.9321C69.3383 69.028 76.4939 69.4718 83.0732 71.6367C84.2926 72.0401 85.5254 72.5242 86.4902 73.378C87.5019 74.2722 88.1451 75.5093 88.7548 76.7128C92.5336 84.1958 96.1181 91.8872 99.2872 99.6392C92.9624 101.737 86.4165 103.162 79.7903 103.875C80.219 108.44 80.2727 109.22 81.1034 113.731C75.7301 114 35.222 113.879 8.94469 113.556L8.93799 113.563Z" fill="#405F72"/>
<g style="mix-blend-mode:multiply" opacity="0.51">
<path d="M62.4974 67.9388C63.623 68.1674 64.628 68.3085 65.7134 68.6918C65.3382 71.5962 62.9731 73.8216 60.521 75.4083C53.1778 80.1684 43.6638 81.3719 35.3692 78.6019C37.6271 84.4377 43.1412 88.8818 49.3119 89.8231C47.0741 93.5679 43.5365 96.311 40.086 98.9667C38.7326 100.009 37.3792 101.051 36.0258 102.086C44.8296 104.661 54.8193 102.725 62.0418 97.0573C63.8441 95.6454 65.4722 94.0184 67.2343 92.5527C67.576 92.2703 67.9445 91.9812 68.38 91.9274C69.3649 91.7997 70.0818 92.8418 70.4235 93.7763C71.4821 96.6875 71.4687 100.056 73.2911 102.564C73.0298 97.1044 73.9142 91.6585 75.1269 86.3337C76.2056 81.6072 77.6528 76.7328 80.9827 73.2165C78.028 82.4005 78.0012 92.5056 80.9157 101.703C82.45 100.5 83.991 99.2962 85.5253 98.0927C86.0479 97.6826 86.6107 97.2052 86.6911 96.5396C86.7447 96.0891 86.5571 95.6454 86.3896 95.2151C85.2506 92.3039 84.996 89.0633 85.6057 86.0042C85.7665 85.2176 89.1299 78.0842 89.2907 78.3397C93.3508 84.9285 96.3323 92.4653 99.2602 99.639C92.9354 101.737 86.3896 103.162 79.7633 103.875C80.1921 108.44 80.2457 109.22 81.0765 113.731C75.7031 114 35.195 113.879 8.91772 113.556C12.4084 102.382 14.5725 95.1412 18.023 83.9603C18.9342 81.0155 19.9928 77.8556 22.4986 76.0672C23.4902 75.3613 24.6359 74.9243 25.7749 74.5074C30.8334 72.6316 35.9387 70.8701 41.0843 69.2364C44.4678 68.1606 47.724 67.0244 51.3219 66.8967C55.0672 66.7689 58.7991 67.3337 62.484 67.9253L62.4974 67.9388Z" fill="#405F72"/>
</g>
<g style="mix-blend-mode:multiply" opacity="0.33">
<path d="M29.7479 74.1241C29.7546 74.1779 29.7613 74.2317 29.768 74.2855C30.3844 81.3181 30.3844 88.4044 29.7546 95.437C29.4464 98.9062 28.9908 102.436 29.7479 105.831C30.505 109.226 32.7629 112.541 36.1196 113.415C35.0677 114.471 31.3157 113.758 29.9489 113.751C27.4565 113.731 24.9574 113.711 22.465 113.691C21.2523 113.677 9.11194 112.991 8.93774 113.549C12.4284 102.375 14.5925 95.1344 18.043 83.9536C18.9542 81.0088 20.0128 77.8488 22.5186 76.0604C23.5102 75.3545 24.6559 74.9175 25.7949 74.5006C26.9272 74.0771 29.4464 72.3895 29.7479 74.1107V74.1241Z" fill="#405F72"/>
</g>
<path d="M116.506 68.86C117.25 67.7775 118.02 66.3791 116.901 65.2563C116.647 65.0008 116.225 64.9807 115.89 65.1151C115.555 65.2496 115.287 65.5051 115.025 65.7538C115.581 64.947 116.144 64.1201 116.379 63.1654C116.526 62.5603 116.466 61.7938 115.916 61.5047C114.188 60.5971 111.963 64.1134 111.032 65.0882C111.34 64.631 111.622 64.1537 111.863 63.6562C111.963 63.4545 112.057 63.246 112.084 63.0242C112.258 61.6728 110.288 62.0896 109.665 62.5401C105.759 65.3437 102.691 68.6986 99.8699 72.5511C99.0592 73.6604 97.5249 75.1664 97.1095 76.4707C97.9135 73.9159 98.6371 71.2266 97.6924 68.5843C97.3373 67.5826 96.6271 66.5808 95.582 66.4127C94.9321 69.6264 94.2487 72.9209 92.5134 75.6976C91.6759 77.0422 90.6106 78.2255 89.7731 79.5702C88.9356 80.9148 88.3326 82.4007 87.8636 83.9201C87.4482 85.2581 87.1333 86.6565 87.2204 88.055C87.3477 90.1257 88.3661 92.0688 89.7329 93.6286C90.7044 94.7446 91.1734 95.5582 91.0997 97.044C90.8183 102.544 89.887 108.218 89.6056 113.718C92.3794 113.886 104.714 113.879 105.29 113.798C103.85 107.277 101.712 101.152 100.506 95.4775C100.493 95.3901 100.473 95.3027 100.506 95.2153C100.547 95.0875 100.681 95.0136 100.795 94.9531C105.002 92.7545 107.294 88.2836 109.987 84.579C112.432 81.2241 115.32 78.1919 117.558 74.7025C117.705 74.4739 117.853 74.2319 117.886 73.963C117.946 73.3982 117.812 72.6318 117.069 72.7192C116.332 72.7998 115.749 73.3915 115.26 73.8957C114.248 74.9378 113.196 75.9463 112.164 76.975C111.849 77.291 108.366 81.1569 108.024 80.74C107.937 80.6325 108.004 80.4778 108.071 80.3635C109.156 78.4541 110.463 76.733 111.87 75.0589C113.504 73.1091 114.958 71.0652 116.419 68.981C116.446 68.9474 116.466 68.9138 116.493 68.8734L116.506 68.86Z" fill="#E29D8A"/>
<g style="mix-blend-mode:multiply" opacity="0.63">
<path d="M116.593 68.86C117.163 68.0398 118.389 65.653 116.707 65.1555C116.794 65.9757 116.231 66.7018 115.702 67.3338C112.345 71.3073 108.989 75.2875 105.632 79.2609C105.518 79.4021 105.371 79.55 105.19 79.5433C104.761 79.5231 104.888 78.8441 105.156 78.5012C107.763 75.153 110.376 71.8048 112.982 68.4566C114.067 67.0649 115.528 65.6732 116.091 63.9655C116.372 63.1116 116.647 61.572 115.233 62.251C114.53 62.5872 113.813 64.1873 113.364 64.826C112.761 65.6732 112.158 66.5136 111.541 67.354C108.942 70.8904 106.322 74.205 103.26 77.412C103.046 77.6339 102.825 77.8625 102.543 77.9835C102.262 78.1045 101.893 78.0844 101.686 77.8558C101.471 77.6205 101.491 77.2439 101.599 76.9414C102.342 74.8975 104.681 72.9209 106.047 71.2401C107.769 69.1222 109.498 66.9977 111.22 64.8798C111.689 64.3016 113.022 62.3115 111.615 62.2981C111.046 62.2981 110.154 63.4276 109.799 63.8175C108.312 65.4379 106.825 67.0582 105.337 68.6785C102.49 71.7779 99.6154 74.9177 97.6121 78.6155C96.7411 77.0355 97.5451 75.6236 97.9002 74.0437C98.3022 72.2351 98.4362 70.3526 97.8064 68.5776C97.5317 67.8045 96.8081 67.4145 96.52 66.7355C97.5518 69.176 97.0694 71.9998 96.1716 74.4941C95.4279 76.5515 94.5301 78.5819 93.4782 80.4913C92.4263 82.4074 90.9992 84.2294 90.7379 86.4683C90.4699 88.7811 91.5419 91.0468 92.8685 92.9563C93.5452 93.9311 94.3023 94.8791 94.6976 95.9952C94.9723 96.7751 95.0527 97.6088 95.1264 98.429C95.3542 100.923 95.5485 103.418 95.7026 105.919C95.783 107.216 95.85 108.514 95.9036 109.812C95.9371 110.551 95.6624 113.301 96.2252 113.731C97.4714 113.913 104.453 113.825 105.33 113.785C103.89 107.781 101.793 101.515 100.627 95.4641C100.614 95.3766 100.594 95.2892 100.627 95.2018C100.667 95.0741 100.801 95.0001 100.915 94.9396C105.123 92.7411 107.414 88.2701 110.108 84.5656C112.553 81.2107 115.441 78.1785 117.679 74.6891C117.826 74.4605 117.973 74.2185 118.007 73.9495C118.081 73.3041 117.846 72.5914 117.109 72.6452C117.431 73.136 117.23 73.6335 116.915 74.084C114.69 77.2171 112.01 80.0207 108.975 82.3805C108.741 82.5621 108.399 82.7503 108.165 82.5621C108.051 82.4679 108.004 82.32 107.977 82.1721C107.508 79.7181 110.57 76.7464 111.99 75.0454C113.625 73.0957 115.079 71.0518 116.54 68.9676C116.566 68.934 116.586 68.9004 116.613 68.86H116.593Z" fill="#E29D8A"/>
</g>
<g style="mix-blend-mode:multiply">
<path d="M96.9956 77.4121C96.8147 78.7837 97.3238 79.9602 97.766 81.2242C98.0005 81.8495 98.2015 82.5151 98.3489 83.221C98.4762 83.9202 98.5298 84.6396 98.5097 85.3523C98.4561 86.7776 98.0809 88.1828 97.4444 89.4401C96.8013 90.6906 95.8834 91.7999 94.731 92.5529C95.4747 91.4033 96.0643 90.2401 96.4797 89.0299C96.8884 87.813 97.1161 86.5625 97.1697 85.3052C97.1965 84.6733 97.163 84.048 97.096 83.4227C97.0357 82.8042 96.875 82.1722 96.7544 81.5066C96.6204 80.8477 96.5065 80.1552 96.4931 79.4425C96.4931 78.7366 96.6203 78.0038 96.9888 77.4121H96.9956Z" fill="#E29D8A"/>
</g>
<g style="mix-blend-mode:multiply">
<path d="M111.883 63.8579C111.213 65.0748 110.449 66.2043 109.645 67.3002C108.841 68.3961 108.004 69.4651 107.126 70.5005C106.248 71.5359 105.33 72.5377 104.379 73.5058C103.428 74.474 102.436 75.4152 101.351 76.2691C102.014 75.0522 102.784 73.9227 103.588 72.8268C104.392 71.7309 105.23 70.6619 106.108 69.6265C106.985 68.5911 107.903 67.5893 108.855 66.6212C109.806 65.653 110.798 64.7118 111.883 63.8579Z" fill="#E29D8A"/>
</g>
<g style="mix-blend-mode:multiply">
<path d="M115.467 65.3438C114.724 66.6077 113.92 67.8045 113.082 68.9743C112.251 70.1509 111.38 71.2939 110.489 72.4234C109.578 73.5394 108.66 74.6488 107.662 75.7043C106.677 76.7599 105.638 77.7818 104.486 78.6895C105.216 77.4188 106.02 76.222 106.851 75.0454C107.675 73.8622 108.553 72.7192 109.444 71.5897C110.355 70.4736 111.28 69.3643 112.278 68.3154C113.27 67.2599 114.308 66.2447 115.467 65.3438Z" fill="#E29D8A"/>
</g>
<path d="M42.0225 67.4345C41.7679 68.2212 41.3458 68.9607 40.6691 69.6129C39.912 70.3457 38.9673 70.8567 38.0226 71.3139C37.9288 71.3609 37.8216 71.4147 37.7881 71.5156C37.7412 71.65 37.835 71.7912 37.9288 71.8988C39.7445 73.9965 42.3575 75.3075 45.0777 75.8319C47.7979 76.3563 50.6186 76.1412 53.3187 75.5226C56.9567 74.6957 60.6819 72.9207 62.4038 69.5994C61.0571 69.6062 59.4357 68.517 58.6652 67.4749C57.8478 66.3655 57.4391 65.0142 57.1108 63.6695C56.2197 60.0524 55.8111 56.5361 56.1929 52.8181C55.255 53.8737 52.9435 54.1157 51.6437 54.351C49.8682 54.6737 48.0659 54.8217 46.2636 54.9628C44.6221 55.0973 42.9337 55.2183 41.3659 54.7141C41.6272 54.8015 41.8617 58.2841 41.9153 58.7077C42.1096 60.1599 42.2771 61.6189 42.3441 63.0778C42.4178 64.5704 42.4647 66.0697 42.0292 67.4144L42.0225 67.4345Z" fill="#E29D8A"/>
<g style="mix-blend-mode:multiply" opacity="0.75">
<path d="M42.0425 67.4346C41.9286 67.8515 41.7879 68.2616 41.6137 68.6784C41.674 68.544 43.3155 68.2683 43.55 68.1944C44.2334 67.9658 44.9034 67.6767 45.5533 67.354C46.7593 66.7556 47.9988 66.211 49.178 65.5521C50.9668 64.5571 52.8227 63.4141 54.3168 61.9283C54.9533 61.2895 55.9851 60.3214 56.1794 59.407C56.4072 58.3313 55.9985 56.8387 56.0052 55.7159C56.0052 55.1646 55.8712 53.188 56.2196 52.8384C55.2816 53.8939 52.9701 54.136 51.6703 54.3713C49.8949 54.694 48.0926 54.8419 46.2903 54.9831C44.6488 55.1176 42.9604 55.2386 41.3926 54.7343C41.6539 54.8218 41.8884 58.3044 41.942 58.728C42.1363 60.1802 42.3038 61.6392 42.3708 63.0981C42.4445 64.5974 42.4177 66.0295 42.0425 67.4279V67.4346Z" fill="#E29D8A"/>
</g>
<path d="M64.4539 42.5382C64.8425 36.8436 64.9966 31.2027 64.9966 25.4879C64.9966 21.7498 65.1775 18.0991 63.7571 14.5693C62.5377 11.5371 60.3468 8.89488 57.5597 7.20061C56.2197 6.38709 54.7591 5.78872 53.2985 5.21724C47.3489 2.89099 40.2469 3.94654 35.0075 7.61073C32.5553 9.32517 30.5453 11.5506 29.1852 14.1256C28.3143 15.7862 27.7113 17.5881 27.4366 19.4975C26.8604 23.4911 27.3763 27.7201 27.7582 31.7272C28.1669 36.0099 28.7966 40.2724 29.6609 44.4812C30.0093 46.1822 30.4046 47.8899 31.2019 49.4296C33.0846 53.0669 37.5334 54.8687 41.2318 55.9713C43.416 56.6235 46.0491 57.3832 48.3405 57.1143C53.2516 56.5428 57.9348 53.6719 61.6064 50.4851C62.3501 49.8397 63.0804 49.1472 63.536 48.2732C64.0854 47.2176 64.1926 46.0007 64.2864 44.8107C64.3467 44.0509 64.4003 43.2912 64.4539 42.5315V42.5382Z" fill="#E29D8A"/>
<g style="mix-blend-mode:multiply" opacity="0.55">
<path d="M31.2019 49.443C33.0846 53.0803 37.5334 54.8822 41.2318 55.9848C43.416 56.637 46.0491 57.3967 48.3405 57.1278C53.2516 56.5563 57.9348 53.6854 61.6064 50.4986C62.3501 49.8532 63.0804 49.1607 63.536 48.2866C64.0854 47.2311 64.1926 46.0142 64.2864 44.8241C64.3467 44.0644 64.4003 43.3047 64.4539 42.5449C64.8425 36.8503 64.9966 31.2095 64.9966 25.4947C64.9966 21.7566 65.1775 18.1058 63.7571 14.5761C62.5377 11.5439 60.3468 8.90164 57.5596 7.20737C56.2196 6.39385 54.7591 5.79548 53.2985 5.224C50.719 4.21551 41.5936 1.95649 41.3256 6.79725C41.2787 7.68472 41.607 8.53858 41.9688 9.3521C43.1882 12.0952 44.8163 14.7106 47.0675 16.6939C47.7107 17.2654 48.4879 17.8033 49.3455 17.7495C50.2031 17.6957 51.0004 16.7275 50.585 15.9745C51.5096 16.7141 52.5012 17.4805 53.6737 17.5881C54.8461 17.6957 56.1861 16.8149 56.0923 15.6384C60.4339 24.6274 62.3166 34.9544 60.7622 44.8578C60.5076 46.4713 60.186 48.1118 59.3418 49.5035C58.5378 50.8348 57.3184 51.85 56.0789 52.7845C53.8412 54.4788 51.2483 56.0588 48.4544 55.8503C49.2919 55.3663 50.0557 54.7679 50.719 54.0687C50.987 53.7863 51.255 53.4568 51.2818 53.0669C51.3153 52.529 50.8731 52.0584 50.3706 51.8769C49.8681 51.6953 49.3187 51.7357 48.7827 51.776C45.828 51.9912 42.8398 52.0113 39.9253 51.4466C36.5686 50.7944 32.0059 48.9859 30.0361 45.9604C30.6927 46.9689 30.6324 48.3471 31.2019 49.4498V49.443Z" fill="#E29D8A"/>
</g>
<g style="mix-blend-mode:multiply">
<path d="M43.3623 24.8157C43.8045 26.0595 44.0725 27.3571 44.24 28.6681C44.4075 29.9792 44.4477 31.3036 44.3807 32.6214C44.3606 33.2803 44.2869 33.9392 44.2065 34.5981C44.1462 35.2569 43.9787 35.9225 43.9318 36.4806C43.8849 37.0588 43.9184 37.5765 44.24 37.832C44.6085 38.1547 45.2852 38.3228 45.8949 38.6119L46.049 38.6858V38.8001C46.049 39.2573 46.0356 39.7077 46.0088 40.1717C45.8547 39.7414 45.7207 39.3044 45.5934 38.8673L45.7475 39.0556C45.1311 38.9413 44.4745 38.9682 43.7375 38.5917C43.3489 38.3698 43.0742 37.9664 42.9402 37.5832C42.8062 37.1932 42.7593 36.81 42.766 36.4537C42.766 35.7141 42.8665 35.1023 42.9201 34.4636L43.0675 32.5542C43.1546 31.2835 43.2015 30.0061 43.2484 28.7219C43.2953 27.4378 43.302 26.1469 43.3623 24.8224V24.8157Z" fill="#E29D8A"/>
</g>
<path d="M53.9885 28.9101C53.9349 27.8815 54.3436 26.8663 55.3084 26.8259C55.7372 26.8057 56.1526 27.0411 56.4206 27.3772C56.6886 27.7134 56.8159 28.1437 56.8494 28.574C56.903 29.2261 56.9097 30.1203 56.4072 30.6044C55.161 31.8079 54.0488 30.0262 53.9885 28.9034V28.9101Z" fill="black"/>
<path d="M34.1499 30.6178C34.0963 29.7976 34.304 28.9437 34.9673 28.6412C35.5301 28.3857 36.2202 28.742 36.5418 29.2731C37.0175 30.0598 37.1515 31.3506 36.5686 32.1238C36.247 32.5541 35.6172 32.776 35.1482 32.5138C34.4447 32.1238 34.1968 31.3775 34.1432 30.6111L34.1499 30.6178Z" fill="black"/>
<g style="mix-blend-mode:multiply" opacity="0.54">
<path d="M50.605 36.884C50.5715 36.8168 50.5447 36.7496 50.5246 36.6756C50.404 36.2319 50.5648 35.7478 50.8529 35.3915C51.141 35.0351 51.543 34.7931 51.9584 34.5914C54.0287 33.5493 56.6416 33.24 58.9263 33.5089C59.8509 33.6165 60.7755 33.946 61.4388 34.5981C62.4505 35.573 62.2629 36.7361 61.0971 37.4219C60.2797 37.906 59.5159 38.1278 58.5779 38.2489C56.3736 38.5447 53.5127 38.8809 51.5095 37.7244C51.1477 37.516 50.7859 37.2471 50.5983 36.884H50.605Z" fill="#E29D8A"/>
</g>
<g style="mix-blend-mode:multiply" opacity="0.54">
<path d="M39.4094 36.1042C38.1565 35.6873 36.7562 35.6604 35.4631 35.8016C33.7613 35.9899 32.0193 36.5076 30.7932 37.711C29.6743 38.8069 30.5051 39.8625 31.7446 40.2995C33.6005 40.9517 35.6373 41.0592 37.5468 40.602C38.4915 40.3734 39.3625 40.1986 40.1933 39.6473C41.0308 39.0826 41.7276 38.1279 41.0978 37.1261C40.8968 36.8101 40.5484 36.6219 40.2201 36.4471C39.9588 36.3126 39.6841 36.1983 39.4027 36.1042H39.4094Z" fill="#E29D8A"/>
</g>
<g style="mix-blend-mode:multiply" opacity="0.78">
<path d="M53.2248 41.9331C50.9736 41.9533 48.6822 41.9734 46.4645 42.3096C44.2334 42.6391 42.0157 42.9954 39.9387 43.9097C40.8499 44.9182 41.942 45.7721 43.148 46.4108C46.1429 48.0042 49.5934 47.7756 51.6436 44.8645C52.26 43.9972 52.8831 42.9282 53.2583 41.9331C53.2449 41.9331 53.2315 41.9331 53.2181 41.9331H53.2248Z" fill="black"/>
</g>
<path d="M53.2182 41.9801C52.1931 41.8187 51.0407 41.9599 50.0022 42.0003C48.8231 42.0473 47.6372 42.1347 46.4647 42.3095C44.3408 42.6255 41.9757 42.9953 39.959 43.9097C40.2538 44.4005 41.1449 44.4677 41.6541 44.508C44.3743 44.7501 47.1146 44.3736 49.7879 43.7819C51.0072 43.513 52.5415 43.1163 53.2584 41.9801C53.245 41.9801 53.2316 41.9801 53.2182 41.9801Z" fill="white"/>
<path d="M53.2248 41.9331C50.9736 41.9533 48.6822 41.9734 46.4645 42.3096C44.2334 42.6391 42.0157 42.9954 39.9387 43.9097C40.8499 44.9182 41.942 45.7721 43.148 46.4108C46.1429 48.0042 49.5934 47.7756 51.6436 44.8645C52.26 43.9972 52.8831 42.9282 53.2583 41.9331C53.2449 41.9331 53.2315 41.9331 53.2181 41.9331H53.2248Z" stroke="#C97967" stroke-width="2" stroke-miterlimit="10"/>
<path d="M52.1127 18.8587C52.5482 18.415 54.1696 17.8166 54.6721 18.4015C54.853 18.6167 54.8731 18.9596 54.7056 19.1882C56.0053 18.7108 57.5128 18.9192 58.6719 19.6588C59.63 20.2706 60.9097 21.2925 60.9499 22.5095C60.9499 22.5834 60.9432 22.6708 60.8695 22.6977C60.836 22.7112 60.8025 22.6977 60.769 22.6977C59.5831 22.449 58.4709 21.8304 57.2582 21.7699C55.8043 21.6959 54.4644 21.743 53.0239 22.0321C52.4008 22.1599 51.7509 22.3145 51.1345 22.1531C49.5734 21.7565 50.0357 20.1025 50.8866 19.2554C51.2551 18.8856 51.6772 18.5696 52.1328 18.3209C52.2199 18.2738 52.3271 18.2267 52.4142 18.2738C52.3405 18.4822 52.2333 18.6772 52.0993 18.852L52.1127 18.8587Z" fill="#99472B"/>
<path d="M37.4463 20.2169C37.1984 20.0757 36.9237 19.995 36.6423 20.0152C36.5016 20.0219 36.3542 20.0622 36.2537 20.1631C36.1532 20.2639 36.1331 20.4522 36.2403 20.5463C35.4899 20.0084 34.4983 19.8269 33.6072 20.0622C33.3794 20.1227 33.1248 20.2437 33.0645 20.4791C33.3258 20.7413 33.634 20.9564 33.969 21.111C33.1918 20.9026 32.3409 20.9766 31.6039 21.3127C31.5503 21.3329 31.4967 21.3665 31.4766 21.4203C31.4163 21.575 31.6776 21.6287 31.8317 21.5884C30.4717 22.0523 29.3193 23.5516 28.7766 24.8425C28.6828 25.0711 28.6158 25.3669 28.7967 25.535C29.0111 25.7299 29.3528 25.5551 29.5873 25.3871C31.5704 23.9886 34.036 23.2894 36.4614 23.4373C37.2855 23.4844 38.4915 23.6592 38.659 22.6305C38.793 21.8103 38.2302 20.674 37.4329 20.2236L37.4463 20.2169Z" fill="#99472B"/>
<path d="M63.5762 19.0941C63.5561 18.9933 63.536 18.8924 63.4757 18.8118C63.3484 18.6302 63.1005 18.6033 62.8794 18.563C61.5461 18.3008 60.6751 16.6738 61.1843 15.4165C60.1659 15.9947 58.8058 15.6115 57.9951 14.7711C57.1777 13.9307 56.8159 12.7474 56.6618 11.5842C56.6618 11.8801 56.233 12.0078 55.9851 11.8532C55.7372 11.6918 55.63 11.3825 55.5563 11.0934C55.2883 10.0782 55.1007 9.04283 55.0136 8.00072C55.1409 9.80256 55.6434 13.3054 53.0237 13.4062C52.2331 13.4399 51.476 13.0634 50.8529 12.5793C49.647 11.6447 48.8363 10.3001 48.0524 8.98232C48.9703 11.6178 49.8949 14.5021 49.0105 17.1511C46.7794 16.9965 44.8163 15.477 43.5969 13.6012C42.3708 11.7254 41.7745 9.51346 41.2653 7.32839C41.0107 11.2615 42.7527 15.0803 45.0575 18.2739C43.8381 18.6706 42.5852 17.7428 41.7879 16.7275C40.7829 15.4568 40.0727 13.9643 39.7109 12.3843C39.7846 13.9105 39.9923 15.4299 40.3206 16.9225C38.4848 16.7746 36.8232 15.3762 35.9455 13.8164C35.108 12.3238 34.7261 10.0177 35.3358 8.3705C34.0762 9.52691 32.9774 10.8514 32.0796 12.3103C31.7915 12.781 31.5168 13.2785 31.4096 13.8231C31.3024 14.3609 31.3694 14.919 31.3828 15.4636C31.4498 17.8302 30.552 20.2102 28.944 21.9381C28.1333 22.8121 27.7581 23.1819 27.872 24.345C28.2003 27.626 29.2455 31.5658 27.7916 34.672C27.7715 34.7123 27.7514 34.7594 27.7112 34.7796C27.5973 34.8333 27.5102 34.672 27.4901 34.551C27.1015 32.3995 26.9139 30.2413 26.5856 28.0764C26.1702 25.3065 25.8821 22.4961 25.5203 19.7396C24.8503 14.6971 28.5286 9.86307 32.4481 7.16031C35.5569 5.02231 39.1481 3.61714 42.8666 3.02549C46.8866 2.3935 50.5246 2.80362 54.29 4.25585C56.9365 5.27779 59.4021 6.77708 61.5126 8.67305C62.8861 9.91013 64.1256 11.3287 64.9564 12.976C65.9212 14.8921 65.8877 16.7612 66.0351 18.8252C66.2026 21.1178 65.9815 23.5181 65.8274 25.804C65.6733 28.0563 65.5058 30.3153 65.0971 32.5407C64.0452 31.512 63.9447 30.322 64.0988 28.9034C64.2127 27.9016 64.1457 26.8528 64.1189 25.8241C64.072 23.5718 64.005 21.3061 63.5829 19.0874L63.5762 19.0941Z" fill="#99472B"/>
<g style="mix-blend-mode:multiply" opacity="0.47">
<path d="M64.9564 18.906C64.7286 17.2655 63.8978 15.7528 62.9263 14.4081C61.9481 13.05 60.7823 11.7255 60.4473 10.0851C59.9448 10.6364 59.047 10.7775 58.4038 10.4078C57.3318 9.80267 57.2447 8.27649 56.4742 7.32178C55.3888 5.97712 53.3051 6.0578 51.8579 5.10982C51.9182 5.78887 51.9785 6.47465 52.0388 7.1537C52.0656 7.43608 52.0723 7.75879 51.8646 7.94705C51.6971 8.10168 51.4358 8.10168 51.208 8.08151C49.3589 7.91343 47.637 6.68307 46.8732 4.98208C46.4779 6.69652 46.5315 8.50508 47.0206 10.1926C47.0943 10.4548 47.1747 10.7708 46.9938 10.9792C46.7459 11.2616 46.2903 11.0667 45.9888 10.8381C43.9587 9.31187 42.5316 7.00579 42.076 4.50472C40.5752 6.00402 39.7176 8.12858 39.7645 10.2531C39.0275 9.65476 38.592 8.68661 38.6389 7.73863C38.2235 9.25136 37.8617 10.7843 37.5736 12.3239C36.4346 10.5422 36.0527 8.28993 36.5485 6.23261C32.4079 8.50508 29.3527 12.6735 28.4147 17.3126C28.1869 18.4354 27.8586 19.8405 26.7397 20.0826C26.9005 24.9032 30.0026 29.9591 27.7916 34.6788C27.7715 34.7192 27.7514 34.7662 27.7112 34.7864C27.5973 34.8402 27.5102 34.6788 27.4901 34.5578C27.1015 32.4064 26.9139 30.2482 26.5856 28.0833C26.1702 25.3133 25.8821 22.503 25.5203 19.7464C24.8503 14.7039 28.5286 9.86991 32.4481 7.16715C35.5569 5.02914 39.1481 3.62397 42.8666 3.03233C46.8866 2.40034 50.5246 2.81046 54.29 4.26269C56.9365 5.28463 59.4021 6.78392 61.5126 8.67988C62.8861 9.91697 64.1256 11.3356 64.9564 12.9828C65.9212 14.8989 65.8877 16.768 66.0351 18.832C66.2026 21.1247 65.9815 23.5249 65.8274 25.8108C65.6733 28.0631 65.5058 30.3221 65.0971 32.5475C64.0452 31.5189 63.9447 30.3289 64.0988 28.9102C64.3601 26.5705 64.5611 24.2174 64.8559 21.871C64.9631 21.0104 65.077 20.1431 65.0033 19.2825C64.9966 19.1615 64.9832 19.0337 64.9631 18.9127L64.9564 18.906Z" fill="#99472B"/>
</g>
<path d="M27.1216 40.5549C30.2036 49.8868 40.9235 52.8384 49.7742 51.5273" stroke="#30283A" stroke-width="6" stroke-miterlimit="10"/>
<path d="M40.6355 51.3123C43.6371 51.9375 47.4963 52.0585 50.4778 51.2249" stroke="#433554" stroke-width="10" stroke-miterlimit="10" stroke-linecap="round"/>
<path d="M24.2741 28.0563C23.3428 23.4844 23.3763 18.5428 25.1183 14.1592C28.341 6.05097 37.3658 2.89775 45.3589 2.40022C49.3454 2.15146 53.419 3.02549 57.0437 4.67269C61.3585 6.63589 64.5544 10.4816 66.0417 14.9593C66.9931 17.8302 67.3348 20.8758 67.4889 23.8946" stroke="#30283A" stroke-width="7" stroke-miterlimit="10"/>
<path d="M21.5072 28.043C20.4285 30.2886 20.3347 33.146 20.6429 35.5261C21.1387 39.3516 24.3413 45.3958 28.9642 44.858C30.398 44.6899 29.3394 37.4758 29.2255 36.4606C28.8034 32.709 28.1871 28.9238 26.6729 25.4411C26.5791 25.2327 26.4853 25.0176 26.3178 24.8696C25.9091 24.4999 25.2659 24.6276 24.7567 24.8428C23.209 25.5084 22.1705 26.658 21.5072 28.0498V28.043Z" fill="#433554"/>
<g style="mix-blend-mode:multiply" opacity="0.51">
<path d="M21.4334 28.0026C20.9443 28.9035 20.7165 30.5036 20.6428 31.0012C20.4217 32.4937 20.4485 34.0266 20.6428 35.5259C20.8438 37.0588 21.3731 38.5649 22.0765 39.9364C22.445 40.6491 22.8738 41.5366 23.4634 42.1013C23.7448 42.3702 23.9726 42.693 24.2406 42.9821C24.321 43.0627 24.4215 43.1569 24.5287 43.13C24.6091 43.1098 24.656 43.0291 24.6962 42.9552C25.1853 42.0139 25.2858 40.9247 25.3193 39.8625C25.4131 37.0521 25.1518 34.2283 24.5287 31.4852C24.2473 30.228 23.8721 28.9506 23.0681 27.9488C22.8537 27.6799 22.5723 27.4109 22.2306 27.3908C21.909 27.3706 21.6477 27.6261 21.4334 28.016V28.0026Z" fill="#433554"/>
</g>
<g style="mix-blend-mode:multiply" opacity="0.51">
<path d="M23.698 25.3939C24.3546 25.5418 24.7231 26.2948 24.9643 26.8461C26.4852 30.3758 27.115 34.356 27.2758 38.1883C27.3294 39.4792 27.3562 40.7768 27.1485 42.0542C27.1083 42.2962 26.7934 44.5552 26.2574 44.2594C27.1485 44.7435 27.919 44.9788 28.9575 44.8578C30.3913 44.6897 29.3327 37.4756 29.2188 36.4604C28.7967 32.7088 28.1803 28.9236 26.6661 25.4409C26.5723 25.2325 26.4785 25.0174 26.311 24.8695C25.6544 24.2778 24.2675 24.9165 23.698 25.4006V25.3939Z" fill="#433554"/>
</g>
<path d="M71.1607 23.3232C72.5409 25.4747 72.9764 28.3657 72.9496 30.8197C72.896 34.7662 70.3232 41.3013 65.4925 41.3214C63.9984 41.3282 64.2262 33.8653 64.2195 32.8165C64.2061 28.9506 64.3803 25.0309 65.526 21.3062C65.593 21.0844 65.6734 20.8558 65.8275 20.681C66.2027 20.2574 66.8861 20.3045 67.4288 20.4658C69.1038 20.9499 70.3098 21.9987 71.1607 23.3232Z" fill="#433554"/>
<g style="mix-blend-mode:multiply" opacity="0.51">
<path d="M71.1606 23.3231C72.5408 25.4746 72.9763 28.3656 72.9495 30.8196C72.9294 32.4802 72.5274 34.1543 71.911 35.694C71.576 36.5276 71.174 37.3344 70.6715 38.0807C69.7871 39.4052 69.4856 37.5765 69.3047 36.8504C68.6481 34.1745 68.5677 31.3709 68.8692 28.6412C69.0166 27.2966 69.2645 25.9586 69.5995 24.6476C69.7603 24.0089 70.2762 21.9516 71.1539 23.3231H71.1606Z" fill="#433554"/>
</g>
<g style="mix-blend-mode:multiply" opacity="0.51">
<path d="M68.0921 22.1465C67.7705 22.8726 67.603 23.6727 67.469 24.4593C66.7052 28.9572 66.4774 33.9392 67.335 38.4438C67.3685 38.6253 68.1725 40.7431 68.5075 40.4271C67.7772 41.1196 66.464 41.3146 65.4925 41.3146C63.9984 41.3213 64.2262 33.8585 64.2195 32.8096C64.2061 28.9438 64.3803 25.0241 65.526 21.2994C65.593 21.0775 65.6734 20.8489 65.8275 20.6741C66.2027 20.2506 66.8861 20.2976 67.4288 20.459C67.9179 20.6002 68.407 20.7817 68.8559 21.017C68.5209 21.3599 68.2931 21.7028 68.0854 22.1398L68.0921 22.1465Z" fill="#433554"/>
</g>
<path d="M20.8035 113.691C20.8035 113.691 23.2691 96.9834 24.8235 88.9491C25.6074 84.8882 26.3913 80.8274 27.1819 76.7665C27.8787 73.1695 28.1869 69.7272 28.6358 66.1168C28.6827 65.7201 28.7363 65.3167 28.8636 64.9402C29.011 64.4965 29.2589 64.0931 29.4934 63.6897C30.5788 61.7937 31.3426 59.6423 31.2354 57.4572C31.1282 55.3528 30.2304 53.3829 29.346 51.4668C28.5956 49.8465 27.8385 48.1589 27.2221 46.4848C27.1953 46.4109 27.1685 46.3369 27.1819 46.2629C27.1953 46.1755 27.2556 46.1016 27.3159 46.0276C28.0596 45.1671 28.7698 44.2998 29.4063 43.3518C29.4666 43.6812 29.5269 44.0241 29.7279 44.293C30.3309 45.0864 30.9875 44.3199 31.0679 43.6274C31.1483 42.9148 31.1416 42.1954 31.0478 41.4894C30.9808 41.0121 30.7865 40.1582 30.2639 39.97C30.1299 39.9229 29.9825 39.9229 29.8418 39.9296C29.9959 39.3918 29.8485 38.8068 29.6207 38.3026C29.5604 38.1614 29.4867 38.0202 29.3594 37.9395C29.2321 37.8521 29.0445 37.8454 28.944 37.9597C29.0043 37.6101 28.8368 37.2605 28.676 36.9378C28.609 36.81 28.542 36.6755 28.408 36.615C28.3008 36.568 28.1802 36.5814 28.0596 36.5949C26.8469 36.7764 25.7816 37.5496 24.8369 38.3026C25.4533 37.8118 25.7347 37.005 26.0429 36.3192C26.4449 35.4183 26.8737 34.5308 27.2154 33.5963C27.8988 31.7407 28.3276 29.7438 27.9725 27.7672C27.9122 27.4378 27.7447 27.0545 27.4164 27.0209C27.0546 26.9806 26.8134 27.3772 26.666 27.7134C25.3528 30.6918 23.9391 33.6299 22.4182 36.5075C21.6879 37.8857 20.9844 39.3178 20.1268 40.6221C19.4032 41.718 18.4451 43.0291 18.9945 44.4208C19.1285 44.7637 19.3563 45.0797 19.3831 45.4494C19.4032 45.6982 19.3228 45.9402 19.3094 46.189C19.2692 46.8344 19.6377 47.4126 19.8722 48.0177C20.0732 48.5489 20.167 49.1136 20.2675 49.6717C20.6494 51.9105 21.0246 54.1494 21.4065 56.3815C21.8018 58.7279 22.1502 61.108 22.6661 63.4477C22.9408 64.6982 21.6812 66.7421 21.2189 67.838C20.4417 69.6667 19.6712 71.4954 18.894 73.3174C17.3061 77.0623 15.7249 80.8005 14.137 84.5453C11.0014 91.9409 7.86585 99.3366 4.73026 106.739C3.77887 108.991 2.21777 113.529 2.21777 113.529L20.8035 113.677V113.691Z" fill="#E29D8A"/>
<g style="mix-blend-mode:multiply" opacity="0.47">
<path d="M22.5322 39.6271C22.8873 39.022 24.234 38.5111 24.8102 38.0808C25.4802 37.5833 25.6946 37.1126 26.0497 36.326C26.4517 35.4251 26.8805 34.5376 27.2222 33.6031C27.9056 31.7474 28.3344 29.7506 27.9793 27.774C27.919 27.458 27.8118 27.1689 27.5036 27.1218C27.1418 27.9891 26.9609 28.964 26.7063 29.8716C26.4115 30.9339 26.1167 31.9962 25.7482 33.0316C24.9308 35.3377 23.7784 37.516 22.5389 39.6204L22.5322 39.6271Z" fill="#E29D8A"/>
</g>
<g style="mix-blend-mode:multiply" opacity="0.47">
<path d="M20.8036 113.691C20.8036 113.691 23.2692 96.9834 24.8236 88.9491C25.6075 84.8883 26.3914 80.8274 27.182 76.7665C27.8788 73.1696 28.187 69.7273 28.6359 66.1168C28.6828 65.7202 28.7364 65.3168 28.8637 64.9403C29.0111 64.4965 29.259 64.0931 29.4935 63.6897C30.5789 61.7938 31.3427 59.6423 31.2355 57.4573C31.1283 55.3529 30.2305 53.383 29.3461 51.4668C28.5957 49.8465 27.8386 48.159 27.2222 46.4849C27.1954 46.4109 27.1686 46.3369 27.182 46.263C27.1954 46.1756 27.2557 46.1016 27.316 46.0277C28.0597 45.1671 28.7699 44.2998 29.4064 43.3518C29.4667 43.6813 29.527 44.0241 29.728 44.2931C30.2104 44.9318 30.8134 44.5015 31.0144 43.883C31.1819 43.3653 31.0144 42.3433 30.8 41.866C30.6325 41.4962 30.2037 41.2138 29.8218 41.3483C29.661 41.4021 29.5337 41.5231 29.4064 41.6374C27.8989 43.0493 26.3847 44.4679 24.8772 45.8798C24.5824 46.1554 24.2675 46.4781 24.2474 46.8815C24.234 47.1169 24.3278 47.3454 24.4216 47.5606C25.9157 51.1575 26.7666 55.0234 26.9207 58.9162C27.0078 61.1416 26.5455 63.6897 25.0045 65.3773C25.8152 66.2177 25.8353 67.5287 25.7214 68.6919C25.507 70.8164 25.0179 72.9074 24.5154 74.9849C23.0012 81.2375 21.3664 87.4633 19.6043 93.6487C18.6663 96.9565 17.6747 100.291 16.0265 103.31C13.5609 107.835 9.87595 110.928 5.50757 113.469C10.4991 113.913 15.7719 113.684 20.8103 113.664L20.8036 113.691Z" fill="#E29D8A"/>
</g>
<g style="mix-blend-mode:multiply">
<path d="M29.4198 38.0133C29.2724 37.8049 29.0178 37.9125 28.8369 38.0066C28.6627 38.1142 28.4684 38.2755 28.2875 38.4033L27.1686 39.2033L24.9308 40.79C23.43 41.8388 21.9627 42.9146 20.4016 43.9231C21.6143 42.5112 23.0414 41.3144 24.5489 40.2387C25.306 39.7076 26.0899 39.21 26.8939 38.7596C27.2959 38.531 27.7113 38.3226 28.1267 38.1209C28.3478 38.0267 28.5354 37.9259 28.7766 37.8385C28.8972 37.8049 29.0178 37.7847 29.1451 37.7982C29.2724 37.8116 29.3997 37.899 29.4265 38.0133H29.4198Z" fill="#E29D8A"/>
</g>
<g style="mix-blend-mode:multiply">
<path d="M30.5519 40.1784C30.17 39.8624 29.6608 39.97 29.3191 40.2322C28.9573 40.481 28.6022 40.8239 28.2337 41.113C27.5034 41.7181 26.7598 42.303 26.0228 42.8946C24.5287 44.0578 23.048 45.2276 21.4534 46.2966C22.6929 44.8309 24.12 43.5535 25.6074 42.3702C26.3578 41.7853 27.1283 41.2205 27.9255 40.6961C28.3275 40.4339 28.7027 40.165 29.1717 39.9431C29.6206 39.728 30.2906 39.7347 30.5586 40.1784H30.5519Z" fill="#E29D8A"/>
</g>
<g style="mix-blend-mode:multiply">
<path d="M26.1167 37.4218C25.1653 38.363 24.1201 39.1228 23.0414 39.8421C22.4987 40.1918 21.9493 40.5346 21.3798 40.8439C21.0984 41.0053 20.7969 41.1465 20.5289 41.3011C20.2609 41.4557 20.0063 41.6305 19.8589 41.9331C19.8589 41.5902 20.0934 41.2742 20.3346 41.0389C20.5825 40.8036 20.8371 40.6086 21.0984 40.4069C21.6143 40.0035 22.1503 39.6337 22.693 39.2707C23.7851 38.5647 24.9107 37.8991 26.1301 37.415L26.1167 37.4218Z" fill="#E29D8A"/>
</g>
</g>
<defs>
<clipPath id="clip0_45_179">
<rect width="118" height="114" fill="white"/>
</clipPath>
</defs>
</svg>
