<svg width="48" height="48" viewBox="0 0 48 48" fill="none" xmlns="http://www.w3.org/2000/svg">
<path d="M24 48C37.2552 48 48 37.2552 48 24C48 10.7448 37.2552 0 24 0C10.7448 0 0 10.7448 0 24C0 37.2552 10.7448 48 24 48ZM16.4083 16.4083C17.293 15.5236 18.7146 15.5236 19.5841 16.4083L23.9924 20.8166L28.4008 16.4083C29.2854 15.5236 30.707 15.5236 31.5766 16.4083C32.4461 17.293 32.4612 18.7146 31.5766 19.5841L27.1682 23.9924L31.5766 28.4008C32.4612 29.2854 32.4612 30.707 31.5766 31.5766C30.6919 32.4461 29.2703 32.4612 28.4008 31.5766L23.9924 27.1682L19.5841 31.5766C18.6994 32.4612 17.2779 32.4612 16.4083 31.5766C15.5388 30.6919 15.5236 29.2703 16.4083 28.4008L20.8166 23.9924L16.4083 19.5841C15.5236 18.6994 15.5236 17.2779 16.4083 16.4083Z" fill="#FF0000"/>
</svg>
