<svg width="66" height="66" viewBox="0 0 66 66" fill="none" xmlns="http://www.w3.org/2000/svg">
<g clip-path="url(#clip0_219_348)">
<path d="M27.1207 65.7345C24.1957 66.1177 21.2486 66.0145 18.3236 65.8745C15.1113 65.7197 11.8842 65.845 8.67928 65.4397C6.69 65.1891 4.70808 64.968 2.79984 64.312C1.66521 63.9214 0.935811 63.2065 0.567425 62.0199C-0.515629 58.5706 0.0295817 55.2983 1.5326 52.1365C2.37988 50.3603 3.99341 49.38 5.71009 48.584C9.09924 47.0142 12.6799 45.9676 16.1796 44.6852C16.7911 44.4641 17.41 44.2356 17.97 43.9187C19.4877 43.0564 19.7309 41.7298 18.7215 40.3073C15.4207 35.6494 13.7704 30.4165 13.4683 24.7636C13.3725 22.9579 13.5788 21.1227 14.0282 19.3539C15.0966 15.1455 18.5152 12.4628 23.2674 12.1385C24.5567 12.05 25.8387 11.5857 27.1428 12.0132C27.1354 29.9227 27.1207 47.8323 27.1133 65.7418L27.1207 65.7345Z" fill="#5997E7"/>
<path d="M27.1204 65.7345C27.1278 47.825 27.1425 29.9154 27.1499 12.0059C28.7856 12.0059 30.4212 12.0943 32.02 12.4481C36.8532 13.5167 39.6014 16.6712 40.0213 21.6313C40.596 28.4193 38.8498 34.5881 35.0039 40.1747C33.8251 41.8846 34.1566 43.3365 36.1164 44.1693C37.8331 44.8916 39.6235 45.4518 41.377 46.0708C43.5284 46.8373 45.6724 47.626 47.7869 48.503C51.3971 49.9992 52.9885 52.8219 53.4821 56.507C53.7253 58.298 53.6295 60.03 53.1653 61.7693C52.8043 63.1328 51.9939 63.9214 50.675 64.3415C47.7501 65.2775 44.7146 65.4839 41.6864 65.6239C36.8311 65.8524 31.9684 65.8377 27.1057 65.7271L27.1204 65.7345Z" fill="#4B88DA"/>
<path d="M39.211 0.00727959C40.7287 -0.0369415 42.4085 0.0736112 44.0589 0.42738C49.3195 1.54765 52.0529 4.84949 52.3623 10.3919C52.7381 17.084 50.8667 23.1128 47.0134 28.5667C46.2619 29.6354 46.4018 30.7483 47.4481 31.6401C48.0301 32.1339 48.7374 32.3698 49.4447 32.6277C52.9517 33.9028 56.5472 34.9346 59.9363 36.5044C65.0643 38.8776 67.4514 45.5476 65.0937 50.7363C64.7548 51.488 64.158 51.9007 63.4581 52.1661C61.3436 52.9694 59.1259 53.2642 56.8861 53.4264C56.282 53.4706 56.083 53.1832 55.9283 52.6746C54.8821 49.3064 52.5023 47.2133 49.3784 45.813C46.0482 44.3316 42.5854 43.2039 39.1446 42.0321C38.1279 41.6857 38.1279 41.3982 38.651 40.5286C41.9738 35.0009 43.7053 29.0384 43.4032 22.5306C43.0643 15.3004 39.4025 10.8562 32.4916 9.41163C30.7455 9.0505 28.9772 8.91046 27.1942 8.96942C26.2806 8.9989 26.0006 8.83676 26.2217 7.81967C27.1132 3.65552 29.9939 1.03174 34.584 0.309457C36.0576 0.0809814 37.5459 -0.014831 39.211 0.00727959Z" fill="#3E73AC"/>
</g>
<defs>
<clipPath id="clip0_219_348">
<rect width="66" height="66" fill="white"/>
</clipPath>
</defs>
</svg>
