<svg width="183" height="39" viewBox="0 0 183 39" fill="none" xmlns="http://www.w3.org/2000/svg">
<path fill-rule="evenodd" clip-rule="evenodd" d="M64.5033 15.8741L65.5724 11.0629C65.6394 10.7575 65.4586 10.452 65.1579 10.3694C63.7755 9.99224 62.0237 9.64001 59.8324 9.64001C48.3898 9.64157 45.4879 16.1016 45.0188 20.4888C44.4904 25.4137 47.9005 30.2451 56.2977 30.2451C59.834 30.2435 62.1437 29.6279 62.9666 29.3661C63.1708 29.3006 63.325 29.1276 63.3656 28.9157L63.8378 26.4299C63.9079 26.0558 63.5541 25.7425 63.1926 25.8563C62.2793 26.1462 60.6491 26.5436 58.5918 26.5436C54.5771 26.5436 51.6767 24.1342 52.0445 19.9854C52.3999 15.9676 55.1101 12.9098 58.8365 12.9082C61.0792 12.9082 62.0689 14.0818 61.9956 15.6496C61.9956 15.6496 61.9956 15.6761 61.9941 15.7385C61.9785 16.0252 62.206 16.2668 62.4944 16.2668H64.0139C64.2492 16.2668 64.4534 16.1032 64.5033 15.8741ZM18.3452 9.95525H26.5975C26.9185 9.95525 27.157 10.2529 27.0869 10.5677L26.8063 11.8348C26.7596 12.0499 26.5819 12.2042 26.3622 12.226L26.2998 12.2338C25.678 12.3164 24.5558 12.519 23.6348 13.239L16.7758 18.9432V18.9447L22.0544 26.089C23.0768 27.4043 23.5818 27.6428 24.6104 27.6599C24.9486 27.6646 25.1902 27.9825 25.1169 28.3098L24.8301 29.5956C24.7803 29.8216 24.5777 29.9837 24.3454 29.9837H20.2357C15.6832 29.9837 14.4255 27.9857 10.6337 21.055C10.6321 21.0534 10.6305 21.0534 10.6305 21.0534L9.52401 26.1108C9.35569 26.8978 10.0134 27.3139 10.4965 27.5103C10.5168 27.5197 10.537 27.5275 10.5573 27.5337C10.788 27.6241 10.9189 27.8688 10.8643 28.1119L10.5355 29.594C10.4856 29.82 10.2846 29.9837 10.0492 29.9837H0.523607C0.188527 29.9837 -0.0592765 29.6735 0.012415 29.3462L0.294505 28.0792C0.344378 27.8501 0.536075 27.6771 0.769851 27.6521L0.797904 27.6475C1.66911 27.5462 2.58552 26.996 3.15281 24.2935L5.31135 14.4048C5.59033 13.0879 4.93108 12.586 4.36222 12.3631L4.35788 12.3616C4.3466 12.3575 4.31637 12.3466 4.27183 12.3335C4.01155 12.2431 3.86038 11.972 3.9196 11.7039L4.2126 10.3838C4.26715 10.1329 4.49002 9.95525 4.74561 9.95525H13.8068C14.1232 9.95525 14.3585 10.2498 14.2899 10.5584L14.0016 11.8613C13.9595 12.053 13.8177 12.2057 13.6307 12.2634C13.6218 12.266 13.6126 12.2688 13.6032 12.2716L13.6032 12.2716L13.6032 12.2716C13.5897 12.2758 13.5759 12.28 13.5621 12.2837C13.1382 12.4224 12.4665 12.7699 12.2608 13.6146L11.0545 19.1177C11.0545 19.1209 11.0576 19.1209 11.0576 19.1209L18.0865 13.2796C18.5073 12.932 18.3997 12.466 17.9166 12.2805L17.9135 12.279C17.6392 12.1979 17.4755 11.9159 17.5363 11.6353L17.8153 10.3807C17.8698 10.1314 18.0911 9.95525 18.3452 9.95525ZM42.6936 15.3165L42.7013 15.2495C42.7824 13.9949 42.3538 13.2608 40.9465 13.2608L36.592 13.2655L35.4293 18.5691H41.6618C41.9829 18.5691 42.2198 18.8668 42.1512 19.1801L41.5434 21.9153C41.4919 22.1444 41.2893 22.308 41.0556 22.308H34.6002C34.6002 22.308 33.8833 25.5575 33.8584 25.6978C33.6168 26.7482 34.3337 27.2906 34.8153 27.5259L34.8154 27.5259C34.8403 27.5368 34.8652 27.5477 34.8901 27.5602C35.0958 27.6521 35.2096 27.8766 35.1597 28.0979L34.8278 29.5925C34.7779 29.82 34.5753 29.9837 34.3415 29.9837H26.7515C26.4336 29.9837 26.1967 29.6876 26.2653 29.3774L29.5725 14.3986C29.9091 13.0769 29.1345 12.5393 28.5797 12.3289L28.5633 12.3226C28.5497 12.3175 28.537 12.3127 28.5236 12.307C28.2758 12.2182 28.1324 11.9595 28.1885 11.7023L28.4815 10.3838C28.536 10.1329 28.7574 9.95525 29.0145 9.95525H45.8885C46.2096 9.95525 46.448 10.2529 46.3779 10.5646L45.2869 15.4833C45.237 15.7124 45.0329 15.8745 44.7991 15.8745H43.1938C42.8946 15.8745 42.6608 15.6142 42.6936 15.3165Z" fill="#E5002B"/>
<line x1="74.255" y1="5.90234" x2="74.255" y2="33.9828" stroke="#DCDCDC" stroke-width="1.33716"/>
<path d="M97.3019 30.9426L92.8021 19.4246L96.9996 8.51112H91.8283L88.5711 17.5441H87.6644V8.51112H82.8625V30.9426H87.6644V21.6409H88.5711L92.0634 30.9426H97.3019ZM98.6031 8.51112V30.9426H103.405V8.51112H98.6031ZM112.799 8.24248C108.031 8.24248 105.378 12.2385 105.378 19.7268C105.378 27.2152 108.031 31.2112 112.799 31.2112C117.601 31.2112 120.254 27.2152 120.254 19.7268C120.254 12.2385 117.601 8.24248 112.799 8.24248ZM112.799 12.2721C114.579 12.2721 115.25 14.5891 115.25 19.7268C115.25 24.8646 114.579 27.1816 112.799 27.1816C111.019 27.1816 110.348 24.8646 110.348 19.7268C110.348 14.5891 111.019 12.2721 112.799 12.2721ZM127.755 31.2112C131.516 31.2112 134.37 28.7263 134.37 24.9317C134.37 18.3165 126.21 17.4434 126.21 14.0182C126.21 12.8094 126.915 12.037 128.057 12.037C129.4 12.037 130.105 13.481 130.105 15.395L134.236 14.4884C134.101 10.5931 131.885 8.24248 128.023 8.24248C124.195 8.24248 121.542 10.8281 121.542 14.4884C121.542 20.9021 129.635 21.6073 129.635 25.3347C129.635 26.6107 128.93 27.3831 127.721 27.3831C126.21 27.3831 125.236 25.8384 125.303 23.4542L121.173 24.5959C121.24 28.6927 123.893 31.2112 127.755 31.2112ZM150.558 30.9426L146.058 19.4246L150.255 8.51112H145.084L141.827 17.5441H140.92V8.51112H136.118V30.9426H140.92V21.6409H141.827L145.319 30.9426H150.558ZM157.955 8.24248C153.187 8.24248 150.534 12.2385 150.534 19.7268C150.534 27.2152 153.187 31.2112 157.955 31.2112C162.757 31.2112 165.41 27.2152 165.41 19.7268C165.41 12.2385 162.757 8.24248 157.955 8.24248ZM157.955 12.2721C159.735 12.2721 160.406 14.5891 160.406 19.7268C160.406 24.8646 159.735 27.1816 157.955 27.1816C156.175 27.1816 155.504 24.8646 155.504 19.7268C155.504 14.5891 156.175 12.2721 157.955 12.2721ZM172.911 31.2112C176.672 31.2112 179.526 28.7263 179.526 24.9317C179.526 18.3165 171.366 17.4434 171.366 14.0182C171.366 12.8094 172.071 12.037 173.213 12.037C174.556 12.037 175.261 13.481 175.261 15.395L179.392 14.4884C179.257 10.5931 177.041 8.24248 173.179 8.24248C169.351 8.24248 166.698 10.8281 166.698 14.4884C166.698 20.9021 174.791 21.6073 174.791 25.3347C174.791 26.6107 174.086 27.3831 172.877 27.3831C171.366 27.3831 170.392 25.8384 170.459 23.4542L166.329 24.5959C166.396 28.6927 169.049 31.2112 172.911 31.2112Z" fill="#E5002B"/>
</svg>
