<svg width="21" height="21" viewBox="0 0 21 21" fill="none" xmlns="http://www.w3.org/2000/svg">
<path d="M3.51466 8.52044H5.69792V18.515C5.69792 18.645 5.80428 18.7514 5.93427 18.7514H7.70688C7.83687 18.7514 7.94323 18.645 7.94323 18.515V8.52044H10.1324C10.3303 8.52044 10.4397 8.29295 10.3185 8.13933L7.00965 3.95006C6.98755 3.92181 6.9593 3.89896 6.92705 3.88325C6.8948 3.86754 6.8594 3.85938 6.82353 3.85938C6.78766 3.85938 6.75226 3.86754 6.72001 3.88325C6.68776 3.89896 6.65951 3.92181 6.63741 3.95006L3.32853 8.13637C3.20741 8.29295 3.31672 8.52044 3.51466 8.52044Z" fill="#262626"/>
<path d="M17.4853 12.6202L15.3021 12.6202L15.3021 2.62562C15.3021 2.49563 15.1957 2.38927 15.0657 2.38927L13.2931 2.38927C13.1631 2.38927 13.0568 2.49563 13.0568 2.62562L13.0568 12.6202L10.8676 12.6202C10.6697 12.6202 10.5603 12.8477 10.6815 13.0013L13.9903 17.1906C14.0125 17.2188 14.0407 17.2417 14.073 17.2574C14.1052 17.2731 14.1406 17.2812 14.1765 17.2812C14.2123 17.2812 14.2477 17.2731 14.28 17.2574C14.3122 17.2417 14.3405 17.2188 14.3626 17.1906L17.6715 13.0043C17.7926 12.8477 17.6833 12.6202 17.4853 12.6202Z" fill="black" fill-opacity="0.85"/>
</svg>
